G04 #@! TF.FileFunction,Soldermask,Top*
%FSLAX46Y46*%
G04 Gerber Fmt 4.6, Leading zero omitted, Abs format (unit mm)*
G04 Created by KiCad (PCBNEW 4.0.6) date 08/22/17 00:05:49*
%MOMM*%
%LPD*%
G01*
G04 APERTURE LIST*
%ADD10C,0.100000*%
%ADD11C,4.100000*%
%ADD12R,1.600000X1.700000*%
%ADD13C,1.924000*%
%ADD14R,2.100000X2.100000*%
%ADD15O,2.100000X2.100000*%
%ADD16R,1.924000X1.924000*%
%ADD17R,1.200000X1.300000*%
%ADD18R,1.400000X1.650000*%
%ADD19R,2.950000X2.900000*%
%ADD20R,1.700000X1.600000*%
%ADD21R,1.100000X1.700000*%
%ADD22C,2.000000*%
%ADD23C,2.150000*%
G04 APERTURE END LIST*
D10*
D11*
X20320000Y31750000D03*
D12*
X29940000Y31750000D03*
D13*
X27940000Y31750000D03*
X25940000Y31750000D03*
D14*
X22860000Y41910000D03*
D15*
X20320000Y41910000D03*
X17780000Y41910000D03*
D16*
X1270000Y1270000D03*
D13*
X3810000Y1270000D03*
X6350000Y1270000D03*
X8890000Y1270000D03*
X11430000Y1270000D03*
X13970000Y1270000D03*
D16*
X16510000Y1270000D03*
D13*
X19050000Y1270000D03*
X19050000Y13970000D03*
X16510000Y13970000D03*
X13970000Y13970000D03*
X11430000Y13970000D03*
X8890000Y13970000D03*
X6350000Y13970000D03*
X3810000Y13970000D03*
X1270000Y13970000D03*
D17*
X32070000Y35830000D03*
X33970000Y35830000D03*
X33020000Y37830000D03*
D18*
X27956000Y28448000D03*
X29956000Y28448000D03*
D19*
X18796000Y7620000D03*
X13746000Y7620000D03*
D14*
X43180000Y1905000D03*
D15*
X43180000Y4445000D03*
X45720000Y1905000D03*
X45720000Y4445000D03*
X48260000Y1905000D03*
X48260000Y4445000D03*
D14*
X6350000Y3810000D03*
D15*
X8890000Y3810000D03*
X11430000Y3810000D03*
X13970000Y3810000D03*
D14*
X27940000Y40640000D03*
D15*
X27940000Y43180000D03*
X30480000Y40640000D03*
X30480000Y43180000D03*
X33020000Y40640000D03*
X33020000Y43180000D03*
D20*
X71120000Y20860000D03*
D13*
X71120000Y22860000D03*
X71120000Y24860000D03*
D17*
X28260000Y35830000D03*
X30160000Y35830000D03*
X29210000Y37830000D03*
D21*
X38730000Y2540000D03*
X36830000Y2540000D03*
X21270000Y38735000D03*
X19370000Y38735000D03*
D10*
G36*
X29210923Y14705954D02*
X29882675Y15377706D01*
X31296889Y13963492D01*
X30625137Y13291740D01*
X29210923Y14705954D01*
X29210923Y14705954D01*
G37*
G36*
X28645238Y14140268D02*
X29316990Y14812020D01*
X30731204Y13397806D01*
X30059452Y12726054D01*
X28645238Y14140268D01*
X28645238Y14140268D01*
G37*
G36*
X28079552Y13574583D02*
X28751304Y14246335D01*
X30165518Y12832121D01*
X29493766Y12160369D01*
X28079552Y13574583D01*
X28079552Y13574583D01*
G37*
G36*
X27513867Y13008898D02*
X28185619Y13680650D01*
X29599833Y12266436D01*
X28928081Y11594684D01*
X27513867Y13008898D01*
X27513867Y13008898D01*
G37*
G36*
X26948181Y12443212D02*
X27619933Y13114964D01*
X29034147Y11700750D01*
X28362395Y11028998D01*
X26948181Y12443212D01*
X26948181Y12443212D01*
G37*
G36*
X26382496Y11877527D02*
X27054248Y12549279D01*
X28468462Y11135065D01*
X27796710Y10463313D01*
X26382496Y11877527D01*
X26382496Y11877527D01*
G37*
G36*
X25816811Y11311841D02*
X26488563Y11983593D01*
X27902777Y10569379D01*
X27231025Y9897627D01*
X25816811Y11311841D01*
X25816811Y11311841D01*
G37*
G36*
X25251125Y10746156D02*
X25922877Y11417908D01*
X27337091Y10003694D01*
X26665339Y9331942D01*
X25251125Y10746156D01*
X25251125Y10746156D01*
G37*
G36*
X25922877Y7281332D02*
X25251125Y7953084D01*
X26665339Y9367298D01*
X27337091Y8695546D01*
X25922877Y7281332D01*
X25922877Y7281332D01*
G37*
G36*
X26488563Y6715647D02*
X25816811Y7387399D01*
X27231025Y8801613D01*
X27902777Y8129861D01*
X26488563Y6715647D01*
X26488563Y6715647D01*
G37*
G36*
X27054248Y6149961D02*
X26382496Y6821713D01*
X27796710Y8235927D01*
X28468462Y7564175D01*
X27054248Y6149961D01*
X27054248Y6149961D01*
G37*
G36*
X27619933Y5584276D02*
X26948181Y6256028D01*
X28362395Y7670242D01*
X29034147Y6998490D01*
X27619933Y5584276D01*
X27619933Y5584276D01*
G37*
G36*
X28185619Y5018590D02*
X27513867Y5690342D01*
X28928081Y7104556D01*
X29599833Y6432804D01*
X28185619Y5018590D01*
X28185619Y5018590D01*
G37*
G36*
X28751304Y4452905D02*
X28079552Y5124657D01*
X29493766Y6538871D01*
X30165518Y5867119D01*
X28751304Y4452905D01*
X28751304Y4452905D01*
G37*
G36*
X29316990Y3887220D02*
X28645238Y4558972D01*
X30059452Y5973186D01*
X30731204Y5301434D01*
X29316990Y3887220D01*
X29316990Y3887220D01*
G37*
G36*
X29882675Y3321534D02*
X29210923Y3993286D01*
X30625137Y5407500D01*
X31296889Y4735748D01*
X29882675Y3321534D01*
X29882675Y3321534D01*
G37*
G36*
X31261533Y4735748D02*
X31933285Y5407500D01*
X33347499Y3993286D01*
X32675747Y3321534D01*
X31261533Y4735748D01*
X31261533Y4735748D01*
G37*
G36*
X31827218Y5301434D02*
X32498970Y5973186D01*
X33913184Y4558972D01*
X33241432Y3887220D01*
X31827218Y5301434D01*
X31827218Y5301434D01*
G37*
G36*
X32392904Y5867119D02*
X33064656Y6538871D01*
X34478870Y5124657D01*
X33807118Y4452905D01*
X32392904Y5867119D01*
X32392904Y5867119D01*
G37*
G36*
X32958589Y6432804D02*
X33630341Y7104556D01*
X35044555Y5690342D01*
X34372803Y5018590D01*
X32958589Y6432804D01*
X32958589Y6432804D01*
G37*
G36*
X33524275Y6998490D02*
X34196027Y7670242D01*
X35610241Y6256028D01*
X34938489Y5584276D01*
X33524275Y6998490D01*
X33524275Y6998490D01*
G37*
G36*
X34089960Y7564175D02*
X34761712Y8235927D01*
X36175926Y6821713D01*
X35504174Y6149961D01*
X34089960Y7564175D01*
X34089960Y7564175D01*
G37*
G36*
X34655645Y8129861D02*
X35327397Y8801613D01*
X36741611Y7387399D01*
X36069859Y6715647D01*
X34655645Y8129861D01*
X34655645Y8129861D01*
G37*
G36*
X35221331Y8695546D02*
X35893083Y9367298D01*
X37307297Y7953084D01*
X36635545Y7281332D01*
X35221331Y8695546D01*
X35221331Y8695546D01*
G37*
G36*
X35893083Y9331942D02*
X35221331Y10003694D01*
X36635545Y11417908D01*
X37307297Y10746156D01*
X35893083Y9331942D01*
X35893083Y9331942D01*
G37*
G36*
X35327397Y9897627D02*
X34655645Y10569379D01*
X36069859Y11983593D01*
X36741611Y11311841D01*
X35327397Y9897627D01*
X35327397Y9897627D01*
G37*
G36*
X34761712Y10463313D02*
X34089960Y11135065D01*
X35504174Y12549279D01*
X36175926Y11877527D01*
X34761712Y10463313D01*
X34761712Y10463313D01*
G37*
G36*
X34196027Y11028998D02*
X33524275Y11700750D01*
X34938489Y13114964D01*
X35610241Y12443212D01*
X34196027Y11028998D01*
X34196027Y11028998D01*
G37*
G36*
X33630341Y11594684D02*
X32958589Y12266436D01*
X34372803Y13680650D01*
X35044555Y13008898D01*
X33630341Y11594684D01*
X33630341Y11594684D01*
G37*
G36*
X33064656Y12160369D02*
X32392904Y12832121D01*
X33807118Y14246335D01*
X34478870Y13574583D01*
X33064656Y12160369D01*
X33064656Y12160369D01*
G37*
G36*
X32498970Y12726054D02*
X31827218Y13397806D01*
X33241432Y14812020D01*
X33913184Y14140268D01*
X32498970Y12726054D01*
X32498970Y12726054D01*
G37*
G36*
X31933285Y13291740D02*
X31261533Y13963492D01*
X32675747Y15377706D01*
X33347499Y14705954D01*
X31933285Y13291740D01*
X31933285Y13291740D01*
G37*
D11*
X71120000Y30480000D03*
X71120000Y15240000D03*
D22*
X10414000Y41275000D03*
X12954000Y40005000D03*
X10414000Y38735000D03*
X12954000Y37465000D03*
X10414000Y36195000D03*
X12954000Y34925000D03*
D23*
X10414000Y33655000D03*
D22*
X12954000Y32385000D03*
M02*
