G04 #@! TF.FileFunction,Legend,Top*
%FSLAX46Y46*%
G04 Gerber Fmt 4.6, Leading zero omitted, Abs format (unit mm)*
G04 Created by KiCad (PCBNEW 4.0.6) date 08/22/17 00:05:49*
%MOMM*%
%LPD*%
G01*
G04 APERTURE LIST*
%ADD10C,0.100000*%
%ADD11C,0.300000*%
%ADD12C,0.400000*%
%ADD13C,0.340000*%
%ADD14C,0.500000*%
%ADD15C,0.120000*%
%ADD16C,0.254000*%
%ADD17C,0.150000*%
%ADD18C,0.152400*%
%ADD19C,0.304800*%
%ADD20C,0.050000*%
G04 APERTURE END LIST*
D10*
D11*
X13428572Y9892857D02*
X14571429Y9892857D01*
X18428572Y9892857D02*
X19571429Y9892857D01*
X19000000Y9321429D02*
X19000000Y10464286D01*
X21600000Y2171429D02*
X21600000Y1100000D01*
X21528572Y885714D01*
X21385715Y742857D01*
X21171429Y671429D01*
X21028572Y671429D01*
X22171429Y2171429D02*
X23171429Y2171429D01*
X22528572Y671429D01*
X21150000Y14721429D02*
X21150000Y13650000D01*
X21078572Y13435714D01*
X20935715Y13292857D01*
X20721429Y13221429D01*
X20578572Y13221429D01*
X22507143Y14721429D02*
X22221429Y14721429D01*
X22078572Y14650000D01*
X22007143Y14578571D01*
X21864286Y14364286D01*
X21792857Y14078571D01*
X21792857Y13507143D01*
X21864286Y13364286D01*
X21935714Y13292857D01*
X22078572Y13221429D01*
X22364286Y13221429D01*
X22507143Y13292857D01*
X22578572Y13364286D01*
X22650000Y13507143D01*
X22650000Y13864286D01*
X22578572Y14007143D01*
X22507143Y14078571D01*
X22364286Y14150000D01*
X22078572Y14150000D01*
X21935714Y14078571D01*
X21864286Y14007143D01*
X21792857Y13864286D01*
D12*
X31700000Y15500000D02*
G75*
G03X31700000Y15500000I-200000J0D01*
G01*
D13*
X24920287Y23681429D02*
X25420287Y22181429D01*
X25920287Y23681429D01*
X26277430Y23681429D02*
X27206001Y23681429D01*
X26706001Y23110000D01*
X26920287Y23110000D01*
X27063144Y23038571D01*
X27134573Y22967143D01*
X27206001Y22824286D01*
X27206001Y22467143D01*
X27134573Y22324286D01*
X27063144Y22252857D01*
X26920287Y22181429D01*
X26491715Y22181429D01*
X26348858Y22252857D01*
X26277430Y22324286D01*
X27848858Y22324286D02*
X27920286Y22252857D01*
X27848858Y22181429D01*
X27777429Y22252857D01*
X27848858Y22324286D01*
X27848858Y22181429D01*
X29277430Y23681429D02*
X28563144Y23681429D01*
X28491715Y22967143D01*
X28563144Y23038571D01*
X28706001Y23110000D01*
X29063144Y23110000D01*
X29206001Y23038571D01*
X29277430Y22967143D01*
X29348858Y22824286D01*
X29348858Y22467143D01*
X29277430Y22324286D01*
X29206001Y22252857D01*
X29063144Y22181429D01*
X28706001Y22181429D01*
X28563144Y22252857D01*
X28491715Y22324286D01*
X29634572Y22038571D02*
X30777429Y22038571D01*
X31134572Y22181429D02*
X31134572Y23181429D01*
X31134572Y22895714D02*
X31206000Y23038571D01*
X31277429Y23110000D01*
X31420286Y23181429D01*
X31563143Y23181429D01*
X32348857Y23681429D02*
X32491714Y23681429D01*
X32634571Y23610000D01*
X32706000Y23538571D01*
X32777429Y23395714D01*
X32848857Y23110000D01*
X32848857Y22752857D01*
X32777429Y22467143D01*
X32706000Y22324286D01*
X32634571Y22252857D01*
X32491714Y22181429D01*
X32348857Y22181429D01*
X32206000Y22252857D01*
X32134571Y22324286D01*
X32063143Y22467143D01*
X31991714Y22752857D01*
X31991714Y23110000D01*
X32063143Y23395714D01*
X32134571Y23538571D01*
X32206000Y23610000D01*
X32348857Y23681429D01*
D14*
X41556000Y762000D02*
G75*
G03X41556000Y762000I-154000J0D01*
G01*
D15*
X16450000Y43240000D02*
X16450000Y40580000D01*
X21590000Y43240000D02*
X16450000Y43240000D01*
X21590000Y40580000D02*
X16450000Y40580000D01*
X21590000Y43240000D02*
X21590000Y40580000D01*
X22860000Y43240000D02*
X24190000Y43240000D01*
X24190000Y43240000D02*
X24190000Y41910000D01*
D16*
X0Y15240000D02*
X20320000Y15240000D01*
X20320000Y15240000D02*
X20320000Y0D01*
X20320000Y0D02*
X0Y0D01*
X0Y0D02*
X0Y15240000D01*
D15*
X34600000Y37590000D02*
X33670000Y37590000D01*
X31440000Y37590000D02*
X32370000Y37590000D01*
X31440000Y37590000D02*
X31440000Y35430000D01*
X34600000Y37590000D02*
X34600000Y36130000D01*
X29456000Y29298000D02*
X28456000Y29298000D01*
X28456000Y27598000D02*
X29456000Y27598000D01*
X20371000Y5770000D02*
X13271000Y5770000D01*
X20371000Y9470000D02*
X13271000Y9470000D01*
X20371000Y5770000D02*
X20371000Y9470000D01*
X49590000Y575000D02*
X49590000Y5775000D01*
X44450000Y575000D02*
X49590000Y575000D01*
X41850000Y5775000D02*
X49590000Y5775000D01*
X44450000Y575000D02*
X44450000Y3175000D01*
X44450000Y3175000D02*
X41850000Y3175000D01*
X41850000Y3175000D02*
X41850000Y5775000D01*
X43180000Y575000D02*
X41850000Y575000D01*
X41850000Y575000D02*
X41850000Y1905000D01*
X34350000Y39310000D02*
X34350000Y44510000D01*
X29210000Y39310000D02*
X34350000Y39310000D01*
X26610000Y44510000D02*
X34350000Y44510000D01*
X29210000Y39310000D02*
X29210000Y41910000D01*
X29210000Y41910000D02*
X26610000Y41910000D01*
X26610000Y41910000D02*
X26610000Y44510000D01*
X27940000Y39310000D02*
X26610000Y39310000D01*
X26610000Y39310000D02*
X26610000Y40640000D01*
X30790000Y37590000D02*
X29860000Y37590000D01*
X27630000Y37590000D02*
X28560000Y37590000D01*
X27630000Y37590000D02*
X27630000Y35430000D01*
X30790000Y37590000D02*
X30790000Y36130000D01*
X37180000Y3420000D02*
X38380000Y3420000D01*
X38380000Y1660000D02*
X37180000Y1660000D01*
X19720000Y39615000D02*
X20920000Y39615000D01*
X20920000Y37855000D02*
X19720000Y37855000D01*
D17*
X31279211Y14476144D02*
X31120112Y14317045D01*
X36405735Y9349620D02*
X36175925Y9119810D01*
X31279211Y4223096D02*
X31509021Y4452906D01*
X26152687Y9349620D02*
X26382497Y9579430D01*
X31279211Y14476144D02*
X31509021Y14246334D01*
X26152687Y9349620D02*
X26382497Y9119810D01*
X31279211Y4223096D02*
X31049401Y4452906D01*
X36405735Y9349620D02*
X36175925Y9579430D01*
X31120112Y14317045D02*
X30112485Y15324672D01*
D18*
X-3556000Y44705000D02*
X14184000Y44705000D01*
X14184000Y44705000D02*
X14184000Y28955000D01*
X14184000Y28955000D02*
X-3556000Y28955000D01*
X-3556000Y28955000D02*
X-3556000Y44705000D01*
D17*
X16938667Y44489619D02*
X16938667Y43775333D01*
X16891047Y43632476D01*
X16795809Y43537238D01*
X16652952Y43489619D01*
X16557714Y43489619D01*
X17843429Y44156286D02*
X17843429Y43489619D01*
X17605333Y44537238D02*
X17367238Y43822952D01*
X17986286Y43822952D01*
D19*
X1588857Y10195476D02*
X1588857Y9167381D01*
X1661429Y9046429D01*
X1734000Y8985952D01*
X1879143Y8925476D01*
X2169429Y8925476D01*
X2314571Y8985952D01*
X2387143Y9046429D01*
X2459714Y9167381D01*
X2459714Y10195476D01*
X3112857Y10074524D02*
X3185428Y10135000D01*
X3330571Y10195476D01*
X3693428Y10195476D01*
X3838571Y10135000D01*
X3911142Y10074524D01*
X3983714Y9953571D01*
X3983714Y9832619D01*
X3911142Y9651190D01*
X3040285Y8925476D01*
X3983714Y8925476D01*
X1741714Y10925476D02*
X1741714Y12195476D01*
X2322286Y12195476D01*
X2467428Y12135000D01*
X2540000Y12074524D01*
X2612571Y11953571D01*
X2612571Y11772143D01*
X2540000Y11651190D01*
X2467428Y11590714D01*
X2322286Y11530238D01*
X1741714Y11530238D01*
X3556000Y12195476D02*
X3846286Y12195476D01*
X3991428Y12135000D01*
X4136571Y12014048D01*
X4209143Y11772143D01*
X4209143Y11348810D01*
X4136571Y11106905D01*
X3991428Y10985952D01*
X3846286Y10925476D01*
X3556000Y10925476D01*
X3410857Y10985952D01*
X3265714Y11106905D01*
X3193143Y11348810D01*
X3193143Y11772143D01*
X3265714Y12014048D01*
X3410857Y12135000D01*
X3556000Y12195476D01*
X5587999Y10925476D02*
X4862285Y10925476D01*
X4862285Y12195476D01*
X6386285Y12195476D02*
X6676571Y12195476D01*
X6821713Y12135000D01*
X6966856Y12014048D01*
X7039428Y11772143D01*
X7039428Y11348810D01*
X6966856Y11106905D01*
X6821713Y10985952D01*
X6676571Y10925476D01*
X6386285Y10925476D01*
X6241142Y10985952D01*
X6095999Y11106905D01*
X6023428Y11348810D01*
X6023428Y11772143D01*
X6095999Y12014048D01*
X6241142Y12135000D01*
X6386285Y12195476D01*
X8418284Y10925476D02*
X7692570Y10925476D01*
X7692570Y12195476D01*
X8926284Y12195476D02*
X8926284Y11167381D01*
X8998856Y11046429D01*
X9071427Y10985952D01*
X9216570Y10925476D01*
X9506856Y10925476D01*
X9651998Y10985952D01*
X9724570Y11046429D01*
X9797141Y11167381D01*
X9797141Y12195476D01*
X10159998Y10804524D02*
X11321141Y10804524D01*
X11611427Y11288333D02*
X12337141Y11288333D01*
X11466284Y10925476D02*
X11974284Y12195476D01*
X12482284Y10925476D01*
X13643427Y11772143D02*
X13643427Y10925476D01*
X13280570Y12255952D02*
X12917713Y11348810D01*
X13861141Y11348810D01*
X14514285Y10925476D02*
X14804570Y10925476D01*
X14949713Y10985952D01*
X15022285Y11046429D01*
X15167427Y11227857D01*
X15239999Y11469762D01*
X15239999Y11953571D01*
X15167427Y12074524D01*
X15094856Y12135000D01*
X14949713Y12195476D01*
X14659427Y12195476D01*
X14514285Y12135000D01*
X14441713Y12074524D01*
X14369142Y11953571D01*
X14369142Y11651190D01*
X14441713Y11530238D01*
X14514285Y11469762D01*
X14659427Y11409286D01*
X14949713Y11409286D01*
X15094856Y11469762D01*
X15167427Y11530238D01*
X15239999Y11651190D01*
X16110856Y11651190D02*
X15965714Y11711667D01*
X15893142Y11772143D01*
X15820571Y11893095D01*
X15820571Y11953571D01*
X15893142Y12074524D01*
X15965714Y12135000D01*
X16110856Y12195476D01*
X16401142Y12195476D01*
X16546285Y12135000D01*
X16618856Y12074524D01*
X16691428Y11953571D01*
X16691428Y11893095D01*
X16618856Y11772143D01*
X16546285Y11711667D01*
X16401142Y11651190D01*
X16110856Y11651190D01*
X15965714Y11590714D01*
X15893142Y11530238D01*
X15820571Y11409286D01*
X15820571Y11167381D01*
X15893142Y11046429D01*
X15965714Y10985952D01*
X16110856Y10925476D01*
X16401142Y10925476D01*
X16546285Y10985952D01*
X16618856Y11046429D01*
X16691428Y11167381D01*
X16691428Y11409286D01*
X16618856Y11530238D01*
X16546285Y11590714D01*
X16401142Y11651190D01*
X17562285Y11651190D02*
X17417143Y11711667D01*
X17344571Y11772143D01*
X17272000Y11893095D01*
X17272000Y11953571D01*
X17344571Y12074524D01*
X17417143Y12135000D01*
X17562285Y12195476D01*
X17852571Y12195476D01*
X17997714Y12135000D01*
X18070285Y12074524D01*
X18142857Y11953571D01*
X18142857Y11893095D01*
X18070285Y11772143D01*
X17997714Y11711667D01*
X17852571Y11651190D01*
X17562285Y11651190D01*
X17417143Y11590714D01*
X17344571Y11530238D01*
X17272000Y11409286D01*
X17272000Y11167381D01*
X17344571Y11046429D01*
X17417143Y10985952D01*
X17562285Y10925476D01*
X17852571Y10925476D01*
X17997714Y10985952D01*
X18070285Y11046429D01*
X18142857Y11167381D01*
X18142857Y11409286D01*
X18070285Y11530238D01*
X17997714Y11590714D01*
X17852571Y11651190D01*
D17*
X32924762Y33996381D02*
X32829524Y34044000D01*
X32734286Y34139238D01*
X32591429Y34282095D01*
X32496190Y34329714D01*
X32400952Y34329714D01*
X32448571Y34091619D02*
X32353333Y34139238D01*
X32258095Y34234476D01*
X32210476Y34424952D01*
X32210476Y34758286D01*
X32258095Y34948762D01*
X32353333Y35044000D01*
X32448571Y35091619D01*
X32639048Y35091619D01*
X32734286Y35044000D01*
X32829524Y34948762D01*
X32877143Y34758286D01*
X32877143Y34424952D01*
X32829524Y34234476D01*
X32734286Y34139238D01*
X32639048Y34091619D01*
X32448571Y34091619D01*
X33734286Y34758286D02*
X33734286Y34091619D01*
X33496190Y35139238D02*
X33258095Y34424952D01*
X33877143Y34424952D01*
X28789334Y26566857D02*
X28741715Y26519238D01*
X28598858Y26471619D01*
X28503620Y26471619D01*
X28360762Y26519238D01*
X28265524Y26614476D01*
X28217905Y26709714D01*
X28170286Y26900190D01*
X28170286Y27043048D01*
X28217905Y27233524D01*
X28265524Y27328762D01*
X28360762Y27424000D01*
X28503620Y27471619D01*
X28598858Y27471619D01*
X28741715Y27424000D01*
X28789334Y27376381D01*
X29741715Y26471619D02*
X29170286Y26471619D01*
X29456000Y26471619D02*
X29456000Y27471619D01*
X29360762Y27328762D01*
X29265524Y27233524D01*
X29170286Y27185905D01*
X10833334Y6142857D02*
X10785715Y6095238D01*
X10642858Y6047619D01*
X10547620Y6047619D01*
X10404762Y6095238D01*
X10309524Y6190476D01*
X10261905Y6285714D01*
X10214286Y6476190D01*
X10214286Y6619048D01*
X10261905Y6809524D01*
X10309524Y6904762D01*
X10404762Y7000000D01*
X10547620Y7047619D01*
X10642858Y7047619D01*
X10785715Y7000000D01*
X10833334Y6952381D01*
X11214286Y6952381D02*
X11261905Y7000000D01*
X11357143Y7047619D01*
X11595239Y7047619D01*
X11690477Y7000000D01*
X11738096Y6952381D01*
X11785715Y6857143D01*
X11785715Y6761905D01*
X11738096Y6619048D01*
X11166667Y6047619D01*
X11785715Y6047619D01*
X41981619Y6151619D02*
X41981619Y7151619D01*
X42410190Y6199238D02*
X42553047Y6151619D01*
X42791143Y6151619D01*
X42886381Y6199238D01*
X42934000Y6246857D01*
X42981619Y6342095D01*
X42981619Y6437333D01*
X42934000Y6532571D01*
X42886381Y6580190D01*
X42791143Y6627810D01*
X42600666Y6675429D01*
X42505428Y6723048D01*
X42457809Y6770667D01*
X42410190Y6865905D01*
X42410190Y6961143D01*
X42457809Y7056381D01*
X42505428Y7104000D01*
X42600666Y7151619D01*
X42838762Y7151619D01*
X42981619Y7104000D01*
X43410190Y6151619D02*
X43410190Y7151619D01*
X43791143Y7151619D01*
X43886381Y7104000D01*
X43934000Y7056381D01*
X43981619Y6961143D01*
X43981619Y6818286D01*
X43934000Y6723048D01*
X43886381Y6675429D01*
X43791143Y6627810D01*
X43410190Y6627810D01*
X44934000Y6151619D02*
X44362571Y6151619D01*
X44648285Y6151619D02*
X44648285Y7151619D01*
X44553047Y7008762D01*
X44457809Y6913524D01*
X44362571Y6865905D01*
X25320667Y40425619D02*
X25320667Y39711333D01*
X25273047Y39568476D01*
X25177809Y39473238D01*
X25034952Y39425619D01*
X24939714Y39425619D01*
X26273048Y40425619D02*
X25796857Y40425619D01*
X25749238Y39949429D01*
X25796857Y39997048D01*
X25892095Y40044667D01*
X26130191Y40044667D01*
X26225429Y39997048D01*
X26273048Y39949429D01*
X26320667Y39854190D01*
X26320667Y39616095D01*
X26273048Y39520857D01*
X26225429Y39473238D01*
X26130191Y39425619D01*
X25892095Y39425619D01*
X25796857Y39473238D01*
X25749238Y39520857D01*
X29114762Y33996381D02*
X29019524Y34044000D01*
X28924286Y34139238D01*
X28781429Y34282095D01*
X28686190Y34329714D01*
X28590952Y34329714D01*
X28638571Y34091619D02*
X28543333Y34139238D01*
X28448095Y34234476D01*
X28400476Y34424952D01*
X28400476Y34758286D01*
X28448095Y34948762D01*
X28543333Y35044000D01*
X28638571Y35091619D01*
X28829048Y35091619D01*
X28924286Y35044000D01*
X29019524Y34948762D01*
X29067143Y34758286D01*
X29067143Y34424952D01*
X29019524Y34234476D01*
X28924286Y34139238D01*
X28829048Y34091619D01*
X28638571Y34091619D01*
X29400476Y35091619D02*
X30019524Y35091619D01*
X29686190Y34710667D01*
X29829048Y34710667D01*
X29924286Y34663048D01*
X29971905Y34615429D01*
X30019524Y34520190D01*
X30019524Y34282095D01*
X29971905Y34186857D01*
X29924286Y34139238D01*
X29829048Y34091619D01*
X29543333Y34091619D01*
X29448095Y34139238D01*
X29400476Y34186857D01*
X37613334Y437619D02*
X37280000Y913810D01*
X37041905Y437619D02*
X37041905Y1437619D01*
X37422858Y1437619D01*
X37518096Y1390000D01*
X37565715Y1342381D01*
X37613334Y1247143D01*
X37613334Y1104286D01*
X37565715Y1009048D01*
X37518096Y961429D01*
X37422858Y913810D01*
X37041905Y913810D01*
X37946667Y1437619D02*
X38565715Y1437619D01*
X38232381Y1056667D01*
X38375239Y1056667D01*
X38470477Y1009048D01*
X38518096Y961429D01*
X38565715Y866190D01*
X38565715Y628095D01*
X38518096Y532857D01*
X38470477Y485238D01*
X38375239Y437619D01*
X38089524Y437619D01*
X37994286Y485238D01*
X37946667Y532857D01*
X20153334Y36632619D02*
X19820000Y37108810D01*
X19581905Y36632619D02*
X19581905Y37632619D01*
X19962858Y37632619D01*
X20058096Y37585000D01*
X20105715Y37537381D01*
X20153334Y37442143D01*
X20153334Y37299286D01*
X20105715Y37204048D01*
X20058096Y37156429D01*
X19962858Y37108810D01*
X19581905Y37108810D01*
X21010477Y37632619D02*
X20820000Y37632619D01*
X20724762Y37585000D01*
X20677143Y37537381D01*
X20581905Y37394524D01*
X20534286Y37204048D01*
X20534286Y36823095D01*
X20581905Y36727857D01*
X20629524Y36680238D01*
X20724762Y36632619D01*
X20915239Y36632619D01*
X21010477Y36680238D01*
X21058096Y36727857D01*
X21105715Y36823095D01*
X21105715Y37061190D01*
X21058096Y37156429D01*
X21010477Y37204048D01*
X20915239Y37251667D01*
X20724762Y37251667D01*
X20629524Y37204048D01*
X20581905Y37156429D01*
X20534286Y37061190D01*
X35405684Y14553589D02*
X34833264Y13981169D01*
X34799592Y13880154D01*
X34799592Y13812811D01*
X34833264Y13711796D01*
X34967952Y13577108D01*
X35068967Y13543436D01*
X35136310Y13543436D01*
X35237325Y13577108D01*
X35809745Y14149528D01*
X35809745Y12735314D02*
X35405684Y13139376D01*
X35607714Y12937345D02*
X36314821Y13644452D01*
X36146462Y13610780D01*
X36011776Y13610780D01*
X35910760Y13644452D01*
D20*
X14881381Y32036667D02*
X15595667Y32036667D01*
X15738524Y31989047D01*
X15833762Y31893809D01*
X15881381Y31750952D01*
X15881381Y31655714D01*
X15881381Y33036667D02*
X15881381Y32465238D01*
X15881381Y32750952D02*
X14881381Y32750952D01*
X15024238Y32655714D01*
X15119476Y32560476D01*
X15167095Y32465238D01*
X-4618619Y31981191D02*
X-5094810Y31647857D01*
X-4618619Y31409762D02*
X-5618619Y31409762D01*
X-5618619Y31790715D01*
X-5571000Y31885953D01*
X-5523381Y31933572D01*
X-5428143Y31981191D01*
X-5285286Y31981191D01*
X-5190048Y31933572D01*
X-5142429Y31885953D01*
X-5094810Y31790715D01*
X-5094810Y31409762D01*
X-5618619Y32695477D02*
X-4904333Y32695477D01*
X-4761476Y32647857D01*
X-4666238Y32552619D01*
X-4618619Y32409762D01*
X-4618619Y32314524D01*
X-5285286Y33600239D02*
X-4618619Y33600239D01*
X-5666238Y33362143D02*
X-4951952Y33124048D01*
X-4951952Y33743096D01*
X-5618619Y34600239D02*
X-5618619Y34124048D01*
X-5142429Y34076429D01*
X-5190048Y34124048D01*
X-5237667Y34219286D01*
X-5237667Y34457382D01*
X-5190048Y34552620D01*
X-5142429Y34600239D01*
X-5047190Y34647858D01*
X-4809095Y34647858D01*
X-4713857Y34600239D01*
X-4666238Y34552620D01*
X-4618619Y34457382D01*
X-4618619Y34219286D01*
X-4666238Y34124048D01*
X-4713857Y34076429D01*
M02*
