M48
;DRILL file {KiCad 4.0.6} date 08/22/17 00:05:51
;FORMAT={-:-/ absolute / metric / decimal}
FMAT,2
METRIC,TZ
T1C0.400
T2C0.762
T3C0.813
T4C0.900
T5C1.000
T6C3.200
T7C3.700
%
G90
G05
M71
T1
X87.122Y-119.38
X93.218Y-117.348
X97.214Y-117.666
X98.044Y-119.38
X99.568Y-107.188
X99.574Y-111.575
X100.838Y-117.602
X100.878Y-113.953
X101.6Y-121.666
X101.731Y-113.767
X102.242Y-112.413
X102.654Y-122.291
X102.96Y-112.813
X104.773Y-110.873
X108.204Y-110.236
X114.046Y-117.348
X114.3Y-118.364
X114.3Y-119.38
X115.57Y-120.65
X116.586Y-120.904
T2
X102.14Y-95.25
X104.14Y-95.25
X106.14Y-95.25
X147.32Y-102.14
X147.32Y-104.14
X147.32Y-106.14
T3
X77.47Y-113.03
X77.47Y-125.73
X80.01Y-113.03
X80.01Y-125.73
X82.55Y-113.03
X82.55Y-125.73
X85.09Y-113.03
X85.09Y-125.73
X87.63Y-113.03
X87.63Y-125.73
X90.17Y-113.03
X90.17Y-125.73
X92.71Y-113.03
X92.71Y-125.73
X95.25Y-113.03
X95.25Y-125.73
T4
X86.614Y-85.725
X86.614Y-88.265
X86.614Y-90.805
X86.614Y-93.345
X89.154Y-86.995
X89.154Y-89.535
X89.154Y-92.075
X89.154Y-94.615
T5
X82.55Y-123.19
X85.09Y-123.19
X87.63Y-123.19
X90.17Y-123.19
X93.98Y-85.09
X96.52Y-85.09
X99.06Y-85.09
X104.14Y-83.82
X104.14Y-86.36
X106.68Y-83.82
X106.68Y-86.36
X109.22Y-83.82
X109.22Y-86.36
X119.38Y-122.555
X119.38Y-125.095
X121.92Y-122.555
X121.92Y-125.095
X124.46Y-122.555
X124.46Y-125.095
T6
X80.264Y-84.455
X80.264Y-95.885
T7
X96.52Y-95.25
X147.32Y-96.52
X147.32Y-111.76
T0
M30
