G04 #@! TF.FileFunction,Copper,L1,Top,Signal*
%FSLAX46Y46*%
G04 Gerber Fmt 4.6, Leading zero omitted, Abs format (unit mm)*
G04 Created by KiCad (PCBNEW 4.0.6) date 08/22/17 00:05:49*
%MOMM*%
%LPD*%
G01*
G04 APERTURE LIST*
%ADD10C,0.100000*%
%ADD11R,1.200000X1.300000*%
%ADD12C,1.524000*%
%ADD13R,1.700000X1.700000*%
%ADD14O,1.700000X1.700000*%
%ADD15R,1.524000X1.524000*%
%ADD16R,0.800000X0.900000*%
%ADD17R,1.000000X1.250000*%
%ADD18R,2.550000X2.500000*%
%ADD19R,1.300000X1.200000*%
%ADD20R,0.700000X1.300000*%
%ADD21C,1.600000*%
%ADD22C,1.750000*%
%ADD23C,0.600000*%
%ADD24C,0.250000*%
%ADD25C,0.500000*%
%ADD26C,1.000000*%
G04 APERTURE END LIST*
D10*
D11*
X29940000Y31750000D03*
D12*
X27940000Y31750000D03*
X25940000Y31750000D03*
D13*
X22860000Y41910000D03*
D14*
X20320000Y41910000D03*
X17780000Y41910000D03*
D15*
X1270000Y1270000D03*
D12*
X3810000Y1270000D03*
X6350000Y1270000D03*
X8890000Y1270000D03*
X11430000Y1270000D03*
X13970000Y1270000D03*
D15*
X16510000Y1270000D03*
D12*
X19050000Y1270000D03*
X19050000Y13970000D03*
X16510000Y13970000D03*
X13970000Y13970000D03*
X11430000Y13970000D03*
X8890000Y13970000D03*
X6350000Y13970000D03*
X3810000Y13970000D03*
X1270000Y13970000D03*
D16*
X32070000Y35830000D03*
X33970000Y35830000D03*
X33020000Y37830000D03*
D17*
X27956000Y28448000D03*
X29956000Y28448000D03*
D18*
X18796000Y7620000D03*
X13746000Y7620000D03*
D13*
X43180000Y1905000D03*
D14*
X43180000Y4445000D03*
X45720000Y1905000D03*
X45720000Y4445000D03*
X48260000Y1905000D03*
X48260000Y4445000D03*
D13*
X6350000Y3810000D03*
D14*
X8890000Y3810000D03*
X11430000Y3810000D03*
X13970000Y3810000D03*
D13*
X27940000Y40640000D03*
D14*
X27940000Y43180000D03*
X30480000Y40640000D03*
X30480000Y43180000D03*
X33020000Y40640000D03*
X33020000Y43180000D03*
D19*
X71120000Y20860000D03*
D12*
X71120000Y22860000D03*
X71120000Y24860000D03*
D16*
X28260000Y35830000D03*
X30160000Y35830000D03*
X29210000Y37830000D03*
D20*
X38730000Y2540000D03*
X36830000Y2540000D03*
X21270000Y38735000D03*
X19370000Y38735000D03*
D10*
G36*
X29493766Y14705954D02*
X29882675Y15094863D01*
X31014046Y13963492D01*
X30625137Y13574583D01*
X29493766Y14705954D01*
X29493766Y14705954D01*
G37*
G36*
X28928081Y14140268D02*
X29316990Y14529177D01*
X30448361Y13397806D01*
X30059452Y13008897D01*
X28928081Y14140268D01*
X28928081Y14140268D01*
G37*
G36*
X28362395Y13574583D02*
X28751304Y13963492D01*
X29882675Y12832121D01*
X29493766Y12443212D01*
X28362395Y13574583D01*
X28362395Y13574583D01*
G37*
G36*
X27796710Y13008898D02*
X28185619Y13397807D01*
X29316990Y12266436D01*
X28928081Y11877527D01*
X27796710Y13008898D01*
X27796710Y13008898D01*
G37*
G36*
X27231024Y12443212D02*
X27619933Y12832121D01*
X28751304Y11700750D01*
X28362395Y11311841D01*
X27231024Y12443212D01*
X27231024Y12443212D01*
G37*
G36*
X26665339Y11877527D02*
X27054248Y12266436D01*
X28185619Y11135065D01*
X27796710Y10746156D01*
X26665339Y11877527D01*
X26665339Y11877527D01*
G37*
G36*
X26099654Y11311841D02*
X26488563Y11700750D01*
X27619934Y10569379D01*
X27231025Y10180470D01*
X26099654Y11311841D01*
X26099654Y11311841D01*
G37*
G36*
X25533968Y10746156D02*
X25922877Y11135065D01*
X27054248Y10003694D01*
X26665339Y9614785D01*
X25533968Y10746156D01*
X25533968Y10746156D01*
G37*
G36*
X25922877Y7564175D02*
X25533968Y7953084D01*
X26665339Y9084455D01*
X27054248Y8695546D01*
X25922877Y7564175D01*
X25922877Y7564175D01*
G37*
G36*
X26488563Y6998490D02*
X26099654Y7387399D01*
X27231025Y8518770D01*
X27619934Y8129861D01*
X26488563Y6998490D01*
X26488563Y6998490D01*
G37*
G36*
X27054248Y6432804D02*
X26665339Y6821713D01*
X27796710Y7953084D01*
X28185619Y7564175D01*
X27054248Y6432804D01*
X27054248Y6432804D01*
G37*
G36*
X27619933Y5867119D02*
X27231024Y6256028D01*
X28362395Y7387399D01*
X28751304Y6998490D01*
X27619933Y5867119D01*
X27619933Y5867119D01*
G37*
G36*
X28185619Y5301433D02*
X27796710Y5690342D01*
X28928081Y6821713D01*
X29316990Y6432804D01*
X28185619Y5301433D01*
X28185619Y5301433D01*
G37*
G36*
X28751304Y4735748D02*
X28362395Y5124657D01*
X29493766Y6256028D01*
X29882675Y5867119D01*
X28751304Y4735748D01*
X28751304Y4735748D01*
G37*
G36*
X29316990Y4170063D02*
X28928081Y4558972D01*
X30059452Y5690343D01*
X30448361Y5301434D01*
X29316990Y4170063D01*
X29316990Y4170063D01*
G37*
G36*
X29882675Y3604377D02*
X29493766Y3993286D01*
X30625137Y5124657D01*
X31014046Y4735748D01*
X29882675Y3604377D01*
X29882675Y3604377D01*
G37*
G36*
X31544376Y4735748D02*
X31933285Y5124657D01*
X33064656Y3993286D01*
X32675747Y3604377D01*
X31544376Y4735748D01*
X31544376Y4735748D01*
G37*
G36*
X32110061Y5301434D02*
X32498970Y5690343D01*
X33630341Y4558972D01*
X33241432Y4170063D01*
X32110061Y5301434D01*
X32110061Y5301434D01*
G37*
G36*
X32675747Y5867119D02*
X33064656Y6256028D01*
X34196027Y5124657D01*
X33807118Y4735748D01*
X32675747Y5867119D01*
X32675747Y5867119D01*
G37*
G36*
X33241432Y6432804D02*
X33630341Y6821713D01*
X34761712Y5690342D01*
X34372803Y5301433D01*
X33241432Y6432804D01*
X33241432Y6432804D01*
G37*
G36*
X33807118Y6998490D02*
X34196027Y7387399D01*
X35327398Y6256028D01*
X34938489Y5867119D01*
X33807118Y6998490D01*
X33807118Y6998490D01*
G37*
G36*
X34372803Y7564175D02*
X34761712Y7953084D01*
X35893083Y6821713D01*
X35504174Y6432804D01*
X34372803Y7564175D01*
X34372803Y7564175D01*
G37*
G36*
X34938488Y8129861D02*
X35327397Y8518770D01*
X36458768Y7387399D01*
X36069859Y6998490D01*
X34938488Y8129861D01*
X34938488Y8129861D01*
G37*
G36*
X35504174Y8695546D02*
X35893083Y9084455D01*
X37024454Y7953084D01*
X36635545Y7564175D01*
X35504174Y8695546D01*
X35504174Y8695546D01*
G37*
G36*
X35893083Y9614785D02*
X35504174Y10003694D01*
X36635545Y11135065D01*
X37024454Y10746156D01*
X35893083Y9614785D01*
X35893083Y9614785D01*
G37*
G36*
X35327397Y10180470D02*
X34938488Y10569379D01*
X36069859Y11700750D01*
X36458768Y11311841D01*
X35327397Y10180470D01*
X35327397Y10180470D01*
G37*
G36*
X34761712Y10746156D02*
X34372803Y11135065D01*
X35504174Y12266436D01*
X35893083Y11877527D01*
X34761712Y10746156D01*
X34761712Y10746156D01*
G37*
G36*
X34196027Y11311841D02*
X33807118Y11700750D01*
X34938489Y12832121D01*
X35327398Y12443212D01*
X34196027Y11311841D01*
X34196027Y11311841D01*
G37*
G36*
X33630341Y11877527D02*
X33241432Y12266436D01*
X34372803Y13397807D01*
X34761712Y13008898D01*
X33630341Y11877527D01*
X33630341Y11877527D01*
G37*
G36*
X33064656Y12443212D02*
X32675747Y12832121D01*
X33807118Y13963492D01*
X34196027Y13574583D01*
X33064656Y12443212D01*
X33064656Y12443212D01*
G37*
G36*
X32498970Y13008897D02*
X32110061Y13397806D01*
X33241432Y14529177D01*
X33630341Y14140268D01*
X32498970Y13008897D01*
X32498970Y13008897D01*
G37*
G36*
X31933285Y13574583D02*
X31544376Y13963492D01*
X32675747Y15094863D01*
X33064656Y14705954D01*
X31933285Y13574583D01*
X31933285Y13574583D01*
G37*
D21*
X10414000Y41275000D03*
X12954000Y40005000D03*
X10414000Y38735000D03*
X12954000Y37465000D03*
X10414000Y36195000D03*
X12954000Y34925000D03*
D22*
X10414000Y33655000D03*
D21*
X12954000Y32385000D03*
D23*
X21844000Y7620000D03*
X23374485Y15424979D03*
X23368000Y19812000D03*
X10922000Y7620000D03*
X17018000Y9652000D03*
X24638000Y9398000D03*
X25400000Y5334000D03*
X39370000Y6350000D03*
X26453683Y4708990D03*
X40386000Y6096000D03*
X21013545Y9334354D03*
X28573155Y16127154D03*
X24677905Y13047119D03*
X38100000Y7620000D03*
X25530596Y13232687D03*
X38100000Y8636000D03*
X26042378Y14586694D03*
X37846000Y9652000D03*
X26759598Y14187446D03*
X32004000Y16764000D03*
D24*
X22742998Y21000000D02*
X22742998Y19447489D01*
X24638000Y22895002D02*
X22742998Y21000000D01*
X24638000Y34290000D02*
X24638000Y22895002D01*
X33389666Y4410738D02*
X35583883Y4410738D01*
X32870201Y4930203D02*
X33389666Y4410738D01*
X35583883Y4410738D02*
X35618145Y4445000D01*
X35618145Y4445000D02*
X35491145Y4572000D01*
X35491145Y4572000D02*
X34001572Y6061573D01*
X35549134Y4514011D02*
X35491145Y4572000D01*
X43180000Y4445000D02*
X41977919Y4445000D01*
X41908908Y4514011D02*
X35687156Y4514011D01*
X41977919Y4445000D02*
X41908908Y4514011D01*
X35687156Y4514011D02*
X35618145Y4445000D01*
X27920455Y13274062D02*
X28556850Y12637667D01*
X27920455Y14270032D02*
X27920455Y13274062D01*
X22742998Y19447489D02*
X27920455Y14270032D01*
D25*
X24003000Y34925000D02*
X24638000Y34290000D01*
X12954000Y34925000D02*
X24003000Y34925000D01*
X27956000Y28448000D02*
X27956000Y31734000D01*
X27956000Y31734000D02*
X27940000Y31750000D01*
X25654000Y33274000D02*
X26416000Y33274000D01*
X26416000Y33274000D02*
X27940000Y31750000D01*
X24638000Y34290000D02*
X25654000Y33274000D01*
D24*
X3810000Y1270000D02*
X3810000Y3555002D01*
X3810000Y3555002D02*
X10732007Y10477009D01*
X10732007Y10477009D02*
X18986991Y10477009D01*
X18986991Y10477009D02*
X21844000Y7620000D01*
X29193245Y10869900D02*
X28061874Y10869901D01*
X28061874Y10869901D02*
X27425479Y11506296D01*
X27940000Y32025000D02*
X27940000Y31750000D01*
X28556850Y12637667D02*
X29193245Y12001272D01*
X29193245Y12001272D02*
X29193245Y10869900D01*
X29193245Y10869900D02*
X34001572Y6061573D01*
X27700000Y31990000D02*
X27940000Y31750000D01*
X23798749Y15424979D02*
X23374485Y15424979D01*
X24292264Y15424979D02*
X23798749Y15424979D01*
X27008867Y12708376D02*
X24292264Y15424979D01*
X27991164Y12071981D02*
X27354769Y12708376D01*
X27354769Y12708376D02*
X27008867Y12708376D01*
D25*
X25030600Y36174799D02*
X25155399Y36050000D01*
X25155399Y36050000D02*
X27931399Y33274000D01*
X10414000Y33655000D02*
X11288999Y34529999D01*
X11288999Y34529999D02*
X11288999Y35110001D01*
X11288999Y35110001D02*
X12378998Y36200000D01*
X12378998Y36200000D02*
X25005399Y36200000D01*
X25005399Y36200000D02*
X25155399Y36050000D01*
X29940000Y31800000D02*
X29940000Y31750000D01*
X27931399Y33274000D02*
X28466000Y33274000D01*
X28466000Y33274000D02*
X29940000Y31800000D01*
D24*
X28486140Y14693860D02*
X23368000Y19812000D01*
X29122535Y13203352D02*
X28486140Y13839747D01*
X28486140Y13839747D02*
X28486140Y14693860D01*
D26*
X13746000Y7620000D02*
X10922000Y7620000D01*
X13746000Y7620000D02*
X16510000Y4856000D01*
X16510000Y4856000D02*
X16510000Y1270000D01*
D25*
X28549998Y36830000D02*
X29210000Y36830000D01*
X29210000Y36830000D02*
X30160000Y35880000D01*
X30160000Y35880000D02*
X30160000Y35830000D01*
X27940000Y40640000D02*
X27940000Y37439998D01*
X27940000Y37439998D02*
X28549998Y36830000D01*
X33020000Y36830000D02*
X31110000Y36830000D01*
X31110000Y36830000D02*
X30160000Y35880000D01*
X33970000Y35830000D02*
X33970000Y35880000D01*
X33970000Y35880000D02*
X33020000Y36830000D01*
X29956000Y28448000D02*
X29956000Y31734000D01*
X29956000Y31734000D02*
X29940000Y31750000D01*
D24*
X36173530Y5020987D02*
X34567258Y6627259D01*
X41651415Y5800000D02*
X40872402Y5020987D01*
X46905000Y5800000D02*
X41651415Y5800000D01*
X48260000Y4445000D02*
X46905000Y5800000D01*
X40872402Y5020987D02*
X36173530Y5020987D01*
X34567258Y6627259D02*
X33930863Y7263654D01*
X33930863Y7263654D02*
X33930863Y8395024D01*
X33930863Y8395024D02*
X29122535Y13203352D01*
X29700000Y31990000D02*
X29940000Y31750000D01*
D26*
X17825999Y9352001D02*
X18796000Y8382000D01*
X18796000Y8382000D02*
X18796000Y7620000D01*
X17018000Y9652000D02*
X17317999Y9352001D01*
X17317999Y9352001D02*
X17825999Y9352001D01*
X19050000Y1270000D02*
X19050000Y7366000D01*
X19050000Y7366000D02*
X18796000Y7620000D01*
D24*
X32332423Y2286000D02*
X30519070Y4099353D01*
X36155411Y3515001D02*
X34926410Y2286000D01*
X30519070Y4099353D02*
X30253906Y4364517D01*
X39282588Y3515001D02*
X36155411Y3515001D01*
X34926410Y2286000D02*
X32332423Y2286000D01*
X40892589Y1905000D02*
X39282588Y3515001D01*
X43180000Y1905000D02*
X40892589Y1905000D01*
X44870001Y2754999D02*
X45720000Y1905000D01*
X44450000Y3175000D02*
X44870001Y2754999D01*
X41275000Y3175000D02*
X44450000Y3175000D01*
X40484988Y3965012D02*
X41275000Y3175000D01*
X35774568Y3965012D02*
X40484988Y3965012D01*
X35537678Y3728122D02*
X35774568Y3965012D01*
X32940911Y3728122D02*
X35537678Y3728122D01*
X32304516Y4364517D02*
X32940911Y3728122D01*
X45720000Y4445000D02*
X46990000Y3175000D01*
X46990000Y3175000D02*
X46990000Y1016000D01*
X46990000Y1016000D02*
X46703999Y729999D01*
X46703999Y729999D02*
X41140001Y729999D01*
X41140001Y729999D02*
X39330000Y2540000D01*
X39330000Y2540000D02*
X38730000Y2540000D01*
X34637967Y13274062D02*
X34001572Y12637667D01*
X36127528Y13274062D02*
X34637967Y13274062D01*
X39323998Y5470998D02*
X38744998Y6049998D01*
X40686002Y5470998D02*
X39323998Y5470998D01*
X41819004Y6604000D02*
X40686002Y5470998D01*
X47840002Y6604000D02*
X41819004Y6604000D01*
X49435001Y3080001D02*
X49435001Y5009001D01*
X48260000Y1905000D02*
X49435001Y3080001D01*
X49435001Y5009001D02*
X47840002Y6604000D01*
X38744998Y6049998D02*
X38744998Y10656592D01*
X38744998Y10656592D02*
X36127528Y13274062D01*
X9600000Y42600000D02*
X9144000Y42144000D01*
X33435887Y13203352D02*
X34072282Y13839747D01*
X12400000Y38019000D02*
X12954000Y37465000D01*
X9144000Y40600000D02*
X9744000Y40000000D01*
X34072282Y13839747D02*
X34072282Y15454897D01*
X11200000Y40000000D02*
X11264999Y39935001D01*
X34072282Y15454897D02*
X33135980Y16391199D01*
X33135980Y16391199D02*
X33135980Y31251609D01*
X33135980Y31251609D02*
X30088567Y34299022D01*
X14032822Y42600000D02*
X9600000Y42600000D01*
X30088567Y34299022D02*
X28355976Y34299022D01*
X28355976Y34299022D02*
X25279965Y37375033D01*
X25279965Y37375033D02*
X19257789Y37375033D01*
X19257789Y37375033D02*
X14032822Y42600000D01*
X9144000Y42144000D02*
X9144000Y40600000D01*
X9744000Y40000000D02*
X11200000Y40000000D01*
X11264999Y39935001D02*
X11266200Y39935001D01*
X11266200Y39935001D02*
X11684000Y39517201D01*
X11684000Y39517201D02*
X11684000Y39200000D01*
X11684000Y39200000D02*
X12400000Y38484000D01*
X12400000Y38484000D02*
X12400000Y38019000D01*
X16930001Y42759999D02*
X17780000Y41910000D01*
X16639991Y43050009D02*
X16930001Y42759999D01*
X9413599Y43050009D02*
X16639991Y43050009D01*
X8693989Y42330400D02*
X9413599Y43050009D01*
X8693989Y39217575D02*
X8693989Y42330400D01*
X9176564Y38735000D02*
X8693989Y39217575D01*
X10414000Y38735000D02*
X9176564Y38735000D01*
X19370000Y38735000D02*
X18770000Y38735000D01*
X17780000Y39725000D02*
X17780000Y41910000D01*
X18770000Y38735000D02*
X17780000Y39725000D01*
X10414000Y41275000D02*
X14721411Y41275000D01*
X14721411Y41275000D02*
X19071389Y36925022D01*
X19071389Y36925022D02*
X25093565Y36925022D01*
X32685969Y31065209D02*
X32685969Y16204799D01*
X32685969Y16204799D02*
X33506596Y15384172D01*
X25093565Y36925022D02*
X28169576Y33849011D01*
X28169576Y33849011D02*
X29902167Y33849011D01*
X29902167Y33849011D02*
X32685969Y31065209D01*
X33506596Y15384172D02*
X33506596Y14405432D01*
X33506596Y14405432D02*
X32870201Y13769037D01*
X21270000Y38735000D02*
X21270000Y40320000D01*
X21270000Y40320000D02*
X22860000Y41910000D01*
D25*
X30480000Y39150000D02*
X30480000Y40640000D01*
X29210000Y37830000D02*
X29210000Y37880000D01*
X29210000Y37880000D02*
X30480000Y39150000D01*
X33020000Y37830000D02*
X33020000Y40640000D01*
D24*
X25940000Y31750000D02*
X26701999Y30988001D01*
X26701999Y30988001D02*
X26701999Y17114411D01*
X26701999Y17114411D02*
X29051826Y14764584D01*
X29051826Y14764584D02*
X29051826Y14405432D01*
X29051826Y14405432D02*
X29688221Y13769037D01*
X26294108Y8324315D02*
X25711685Y8324315D01*
X25711685Y8324315D02*
X24638000Y9398000D01*
X29290967Y34749033D02*
X28260000Y35780000D01*
X28260000Y35780000D02*
X28260000Y35830000D01*
X30274967Y34749033D02*
X29290967Y34749033D01*
X33585991Y31438009D02*
X30274967Y34749033D01*
X39370000Y10793590D02*
X33585991Y16577599D01*
X39370000Y6350000D02*
X39370000Y10793590D01*
X33585991Y16577599D02*
X33585991Y31438009D01*
X25400000Y5334000D02*
X27829277Y5334000D01*
X27829277Y5334000D02*
X28556850Y6061573D01*
X40386000Y6096000D02*
X40386000Y10414000D01*
X40386000Y10414000D02*
X34036000Y16764000D01*
X34036000Y16764000D02*
X34036000Y33164000D01*
X34036000Y33164000D02*
X32070000Y35130000D01*
X32070000Y35130000D02*
X32070000Y35830000D01*
X29122535Y5495888D02*
X28335637Y4708990D01*
X28335637Y4708990D02*
X26453683Y4708990D01*
X30480000Y1778000D02*
X29051826Y3206174D01*
X29051826Y3206174D02*
X29051826Y4293808D01*
X29051826Y4293808D02*
X29688221Y4930203D01*
X35468000Y1778000D02*
X30480000Y1778000D01*
X36830000Y2540000D02*
X36230000Y2540000D01*
X36230000Y2540000D02*
X35468000Y1778000D01*
X6661989Y11118011D02*
X19229888Y11118011D01*
X19229888Y11118011D02*
X21013545Y9334354D01*
X3810000Y13970000D02*
X6661989Y11118011D01*
X28573155Y16015474D02*
X28573155Y16127154D01*
X30253906Y14334723D02*
X28573155Y16015474D01*
X25897765Y7122235D02*
X19050000Y13970000D01*
X26223399Y7122235D02*
X25897765Y7122235D01*
X26859794Y7758630D02*
X26223399Y7122235D01*
X3048000Y15748000D02*
X6604000Y15748000D01*
X7620000Y14732000D02*
X7620000Y13462000D01*
X9063967Y12018033D02*
X19891281Y12018033D01*
X19891281Y12018033D02*
X25352765Y6556549D01*
X26789084Y6556549D02*
X27425479Y7192944D01*
X1270000Y13970000D02*
X3048000Y15748000D01*
X25352765Y6556549D02*
X26789084Y6556549D01*
X7620000Y13462000D02*
X9063967Y12018033D01*
X6604000Y15748000D02*
X7620000Y14732000D01*
X27401916Y6038011D02*
X25234892Y6038011D01*
X19704881Y11568022D02*
X8751978Y11568022D01*
X8751978Y11568022D02*
X6350000Y13970000D01*
X25234892Y6038011D02*
X19704881Y11568022D01*
X27991164Y6627259D02*
X27401916Y6038011D01*
X18621206Y15149967D02*
X22088082Y15149967D01*
X22088082Y15149967D02*
X24190930Y13047119D01*
X17441239Y13970000D02*
X18621206Y15149967D01*
X16510000Y13970000D02*
X17441239Y13970000D01*
X24253641Y13047119D02*
X24677905Y13047119D01*
X24190930Y13047119D02*
X24253641Y13047119D01*
X38100000Y7620000D02*
X37338000Y6858000D01*
X37338000Y6858000D02*
X36599258Y6858000D01*
X36599258Y6858000D02*
X35698628Y7758630D01*
X23963306Y14799977D02*
X25230597Y13532686D01*
X23074483Y14799977D02*
X23963306Y14799977D01*
X18014806Y15179978D02*
X18434806Y15599978D01*
X13970000Y13970000D02*
X15179978Y15179978D01*
X18434806Y15599978D02*
X22274482Y15599978D01*
X25230597Y13532686D02*
X25530596Y13232687D01*
X15179978Y15179978D02*
X18014806Y15179978D01*
X22274482Y15599978D02*
X23074483Y14799977D01*
X38100000Y8636000D02*
X36575999Y8636000D01*
X36575999Y8636000D02*
X36264314Y8324315D01*
X13089989Y15629989D02*
X17828406Y15629989D01*
X24579083Y16049989D02*
X25742379Y14886693D01*
X18248406Y16049989D02*
X24579083Y16049989D01*
X11430000Y13970000D02*
X13089989Y15629989D01*
X17828406Y15629989D02*
X18248406Y16049989D01*
X25742379Y14886693D02*
X26042378Y14586694D01*
X37846000Y9652000D02*
X36987239Y9652000D01*
X36987239Y9652000D02*
X36264314Y10374925D01*
X8890000Y13970000D02*
X11000000Y16080000D01*
X25054076Y16500000D02*
X26759598Y14794478D01*
X11000000Y16080000D02*
X17642006Y16080000D01*
X17642006Y16080000D02*
X18062006Y16500000D01*
X18062006Y16500000D02*
X25054076Y16500000D01*
X32039352Y14599887D02*
X32304516Y14334723D01*
X32004000Y16764000D02*
X32004000Y14635239D01*
X32004000Y14635239D02*
X32039352Y14599887D01*
X26759598Y14611710D02*
X26759598Y14187446D01*
X26759598Y14794478D02*
X26759598Y14611710D01*
M02*
