G04 #@! TF.FileFunction,Copper,L2,Bot,Signal*
%FSLAX46Y46*%
G04 Gerber Fmt 4.6, Leading zero omitted, Abs format (unit mm)*
G04 Created by KiCad (PCBNEW 4.0.6) date 08/22/17 00:05:49*
%MOMM*%
%LPD*%
G01*
G04 APERTURE LIST*
%ADD10C,0.100000*%
%ADD11R,1.200000X1.300000*%
%ADD12C,1.524000*%
%ADD13R,1.700000X1.700000*%
%ADD14O,1.700000X1.700000*%
%ADD15R,1.524000X1.524000*%
%ADD16R,1.300000X1.200000*%
%ADD17C,1.600000*%
%ADD18C,1.750000*%
%ADD19C,0.600000*%
%ADD20C,0.250000*%
%ADD21C,0.500000*%
%ADD22C,1.000000*%
G04 APERTURE END LIST*
D10*
D11*
X29940000Y31750000D03*
D12*
X27940000Y31750000D03*
X25940000Y31750000D03*
D13*
X22860000Y41910000D03*
D14*
X20320000Y41910000D03*
X17780000Y41910000D03*
D15*
X1270000Y1270000D03*
D12*
X3810000Y1270000D03*
X6350000Y1270000D03*
X8890000Y1270000D03*
X11430000Y1270000D03*
X13970000Y1270000D03*
D15*
X16510000Y1270000D03*
D12*
X19050000Y1270000D03*
X19050000Y13970000D03*
X16510000Y13970000D03*
X13970000Y13970000D03*
X11430000Y13970000D03*
X8890000Y13970000D03*
X6350000Y13970000D03*
X3810000Y13970000D03*
X1270000Y13970000D03*
D13*
X43180000Y1905000D03*
D14*
X43180000Y4445000D03*
X45720000Y1905000D03*
X45720000Y4445000D03*
X48260000Y1905000D03*
X48260000Y4445000D03*
D13*
X6350000Y3810000D03*
D14*
X8890000Y3810000D03*
X11430000Y3810000D03*
X13970000Y3810000D03*
D13*
X27940000Y40640000D03*
D14*
X27940000Y43180000D03*
X30480000Y40640000D03*
X30480000Y43180000D03*
X33020000Y40640000D03*
X33020000Y43180000D03*
D16*
X71120000Y20860000D03*
D12*
X71120000Y22860000D03*
X71120000Y24860000D03*
D17*
X10414000Y41275000D03*
X12954000Y40005000D03*
X10414000Y38735000D03*
X12954000Y37465000D03*
X10414000Y36195000D03*
X12954000Y34925000D03*
D18*
X10414000Y33655000D03*
D17*
X12954000Y32385000D03*
D19*
X21844000Y7620000D03*
X23374485Y15424979D03*
X23368000Y19812000D03*
X10922000Y7620000D03*
X17018000Y9652000D03*
X24638000Y9398000D03*
X25400000Y5334000D03*
X39370000Y6350000D03*
X26453683Y4708990D03*
X40386000Y6096000D03*
X21013545Y9334354D03*
X28573155Y16127154D03*
X24677905Y13047119D03*
X38100000Y7620000D03*
X25530596Y13232687D03*
X38100000Y8636000D03*
X26042378Y14586694D03*
X37846000Y9652000D03*
X26759598Y14187446D03*
X32004000Y16764000D03*
D20*
X45259990Y6524990D02*
X44029999Y5294999D01*
X67460011Y19200011D02*
X67460011Y15573600D01*
X44029999Y5294999D02*
X43180000Y4445000D01*
X67460011Y15573600D02*
X58411401Y6524990D01*
X71120000Y22860000D02*
X67460011Y19200011D01*
X58411401Y6524990D02*
X45259990Y6524990D01*
D21*
X12954000Y34925000D02*
X19939000Y41910000D01*
X19939000Y41910000D02*
X20320000Y41910000D01*
D20*
X41977919Y4445000D02*
X43180000Y4445000D01*
X41616907Y4083988D02*
X41977919Y4445000D01*
X25380012Y4083988D02*
X41616907Y4083988D01*
X21844000Y7620000D02*
X25380012Y4083988D01*
X68000000Y15477179D02*
X56967821Y4445000D01*
X69860000Y20860000D02*
X68000000Y19000000D01*
X68000000Y19000000D02*
X68000000Y15477179D01*
X71120000Y20860000D02*
X69860000Y20860000D01*
X71120000Y20860000D02*
X70220000Y20860000D01*
X49462081Y4445000D02*
X48260000Y4445000D01*
X56967821Y4445000D02*
X49462081Y4445000D01*
D22*
X23368000Y19812000D02*
X23368000Y20236264D01*
X10414000Y32417564D02*
X10414000Y33655000D01*
X23368000Y20236264D02*
X23277988Y20326276D01*
X23277988Y20326276D02*
X23277988Y33622012D01*
X18500000Y35000000D02*
X14000000Y30500000D01*
X23277988Y33622012D02*
X21900000Y35000000D01*
X21900000Y35000000D02*
X18500000Y35000000D01*
X14000000Y30500000D02*
X12331564Y30500000D01*
X12331564Y30500000D02*
X10414000Y32417564D01*
D20*
X23368000Y15494000D02*
X23368000Y15431464D01*
X23368000Y15431464D02*
X23374485Y15424979D01*
D22*
X23368000Y19812000D02*
X23368000Y15494000D01*
X5858000Y7620000D02*
X10922000Y7620000D01*
X10922000Y7620000D02*
X13462000Y7620000D01*
X14986000Y11176000D02*
X13462000Y9652000D01*
X13462000Y9652000D02*
X13462000Y7620000D01*
X19050000Y11176000D02*
X14986000Y11176000D01*
X23368000Y15494000D02*
X19050000Y11176000D01*
X13462000Y7620000D02*
X16510000Y4572000D01*
X16510000Y4572000D02*
X16510000Y1270000D01*
X1270000Y1270000D02*
X1270000Y3032000D01*
X1270000Y3032000D02*
X5858000Y7620000D01*
D21*
X27940000Y40640000D02*
X27940000Y33800000D01*
X27940000Y33800000D02*
X29940000Y31800000D01*
X29940000Y31800000D02*
X29940000Y31750000D01*
D22*
X24568011Y14996940D02*
X24568011Y29129060D01*
X17018000Y9652000D02*
X19223071Y9652000D01*
X19223071Y9652000D02*
X24568011Y14996940D01*
X24477999Y34219072D02*
X22375071Y36322000D01*
X24568011Y29129060D02*
X24477999Y29219072D01*
X22375071Y36322000D02*
X17143000Y36322000D01*
X24477999Y29219072D02*
X24477999Y34219072D01*
X13917199Y33096199D02*
X13665199Y33096199D01*
X13665199Y33096199D02*
X12954000Y32385000D01*
X17143000Y36322000D02*
X20066000Y39245000D01*
X13917199Y33096199D02*
X17143000Y36322000D01*
X23622000Y39711998D02*
X26240003Y42330001D01*
X23155002Y39245000D02*
X23622000Y39711998D01*
X20066000Y39245000D02*
X23155002Y39245000D01*
X27090001Y42330001D02*
X27940000Y43180000D01*
X26240003Y42330001D02*
X27090001Y42330001D01*
X33020000Y43180000D02*
X30480000Y43180000D01*
X27940000Y43180000D02*
X30480000Y43180000D01*
D20*
X45720000Y1905000D02*
X44544999Y3080001D01*
D22*
X6350000Y3810000D02*
X6350000Y1270000D01*
X8890000Y3810000D02*
X8890000Y1270000D01*
X11430000Y3810000D02*
X11430000Y1270000D01*
X13970000Y3810000D02*
X13970000Y1270000D01*
D20*
X24638000Y9398000D02*
X27060999Y6975001D01*
X27060999Y6975001D02*
X58225001Y6975001D01*
X58225001Y6975001D02*
X67010000Y15760000D01*
X67010000Y15760000D02*
X67010000Y20750000D01*
X67010000Y20750000D02*
X71120000Y24860000D01*
X39370000Y6350000D02*
X26416000Y6350000D01*
X26416000Y6350000D02*
X25400000Y5334000D01*
X38998990Y4708990D02*
X26453683Y4708990D01*
X40386000Y6096000D02*
X38998990Y4708990D01*
X21013545Y9758618D02*
X21013545Y9334354D01*
X25393022Y15163210D02*
X25393022Y14655210D01*
X26356966Y16127154D02*
X25393022Y15163210D01*
X25393022Y14655210D02*
X21013545Y10275733D01*
X21013545Y10275733D02*
X21013545Y9758618D01*
X28573155Y16127154D02*
X26356966Y16127154D01*
X30105024Y7620000D02*
X24977904Y12747120D01*
X38100000Y7620000D02*
X30105024Y7620000D01*
X24977904Y12747120D02*
X24677905Y13047119D01*
X25830595Y12932688D02*
X25530596Y13232687D01*
X30127283Y8636000D02*
X25830595Y12932688D01*
X38100000Y8636000D02*
X30127283Y8636000D01*
X26042378Y14162430D02*
X26042378Y14586694D01*
X30379327Y9652000D02*
X26042378Y13988949D01*
X26042378Y13988949D02*
X26042378Y14162430D01*
X37846000Y9652000D02*
X30379327Y9652000D01*
X29427446Y14187446D02*
X26759598Y14187446D01*
X32004000Y16764000D02*
X29427446Y14187446D01*
M02*
