G04 #@! TF.FileFunction,Soldermask,Bot*
%FSLAX46Y46*%
G04 Gerber Fmt 4.6, Leading zero omitted, Abs format (unit mm)*
G04 Created by KiCad (PCBNEW 4.0.6) date 08/22/17 00:05:49*
%MOMM*%
%LPD*%
G01*
G04 APERTURE LIST*
%ADD10C,0.100000*%
%ADD11C,4.100000*%
%ADD12R,1.600000X1.700000*%
%ADD13C,1.924000*%
%ADD14R,2.100000X2.100000*%
%ADD15O,2.100000X2.100000*%
%ADD16R,1.924000X1.924000*%
%ADD17R,1.700000X1.600000*%
%ADD18C,2.000000*%
%ADD19C,2.150000*%
G04 APERTURE END LIST*
D10*
D11*
X20320000Y31750000D03*
D12*
X29940000Y31750000D03*
D13*
X27940000Y31750000D03*
X25940000Y31750000D03*
D14*
X22860000Y41910000D03*
D15*
X20320000Y41910000D03*
X17780000Y41910000D03*
D16*
X1270000Y1270000D03*
D13*
X3810000Y1270000D03*
X6350000Y1270000D03*
X8890000Y1270000D03*
X11430000Y1270000D03*
X13970000Y1270000D03*
D16*
X16510000Y1270000D03*
D13*
X19050000Y1270000D03*
X19050000Y13970000D03*
X16510000Y13970000D03*
X13970000Y13970000D03*
X11430000Y13970000D03*
X8890000Y13970000D03*
X6350000Y13970000D03*
X3810000Y13970000D03*
X1270000Y13970000D03*
D14*
X43180000Y1905000D03*
D15*
X43180000Y4445000D03*
X45720000Y1905000D03*
X45720000Y4445000D03*
X48260000Y1905000D03*
X48260000Y4445000D03*
D14*
X6350000Y3810000D03*
D15*
X8890000Y3810000D03*
X11430000Y3810000D03*
X13970000Y3810000D03*
D14*
X27940000Y40640000D03*
D15*
X27940000Y43180000D03*
X30480000Y40640000D03*
X30480000Y43180000D03*
X33020000Y40640000D03*
X33020000Y43180000D03*
D17*
X71120000Y20860000D03*
D13*
X71120000Y22860000D03*
X71120000Y24860000D03*
D11*
X71120000Y30480000D03*
X71120000Y15240000D03*
D18*
X10414000Y41275000D03*
X12954000Y40005000D03*
X10414000Y38735000D03*
X12954000Y37465000D03*
X10414000Y36195000D03*
X12954000Y34925000D03*
D19*
X10414000Y33655000D03*
D18*
X12954000Y32385000D03*
M02*
