%
M48
M72
T01C0.01300
T02C0.02362
T03C0.03000
T04C0.03150
T05C0.03500
T06C0.03543
T07C0.14950
%
T01
X77250Y145846
X89250Y149846
X98750Y154346
X118750Y115846
X122750Y121846
X115750Y77846
X103750Y69846
X107250Y65346
X109250Y59846
X125250Y61846
X141250Y69346
X136250Y73346
X168250Y46846
X167250Y33846
X173250Y32846
X129750Y19846
X126250Y24346
X112250Y26846
X106250Y30346
X109750Y34846
X118250Y42846
X112250Y17846
X61250Y76846
X255750Y21846
X271750Y38346
T02
X33250Y103791
X33250Y181901
T03
X54195Y160838
X58447Y156901
X62778Y152885
X58447Y148870
X62778Y144854
X58447Y140838
X62778Y136822
X58447Y132807
X62778Y128791
X54195Y124854
X54195Y115838
X54195Y169854
T04
X115376Y132846
X123250Y132846
X131124Y132846
X293250Y105720
X293250Y97846
X293250Y89972
T05
X38250Y22846
X48250Y22846
X58250Y22846
X68250Y22846
X73250Y177846
X83250Y177846
X93250Y177846
X214250Y24846
X224250Y24846
X234250Y24846
X234250Y14846
X224250Y14846
X214250Y14846
X289750Y22346
X299750Y22346
X299750Y32346
X289750Y32346
X289750Y42346
X299750Y42346
T06
X88250Y62846
X78250Y62846
X68250Y62846
X58250Y62846
X48250Y62846
X38250Y62846
X28250Y62846
X18250Y62846
X18250Y12846
X28250Y12846
X38250Y12846
X48250Y12846
X58250Y12846
X68250Y12846
X78250Y12846
X88250Y12846
T07
X93250Y132846
X293250Y127846
X293250Y67846
M30
