G75*
%MOIN*%
%OFA0B0*%
%FSLAX25Y25*%
%IPPOS*%
%LPD*%
%AMOC8*
5,1,8,0,0,1.08239X$1,22.5*
%
%ADD10C,0.00000*%
%ADD11C,0.00500*%
%ADD12C,0.00100*%
%ADD13C,0.00400*%
%ADD14C,0.01000*%
D10*
X0013250Y0007846D02*
X0013250Y0186547D01*
X0308171Y0186547D01*
X0308171Y0007846D01*
X0013250Y0007846D01*
X0085775Y0132846D02*
X0085777Y0133029D01*
X0085784Y0133213D01*
X0085795Y0133396D01*
X0085811Y0133579D01*
X0085831Y0133761D01*
X0085856Y0133943D01*
X0085885Y0134124D01*
X0085919Y0134304D01*
X0085957Y0134484D01*
X0085999Y0134662D01*
X0086046Y0134840D01*
X0086097Y0135016D01*
X0086152Y0135191D01*
X0086212Y0135364D01*
X0086276Y0135536D01*
X0086344Y0135707D01*
X0086416Y0135875D01*
X0086493Y0136042D01*
X0086573Y0136207D01*
X0086658Y0136370D01*
X0086746Y0136530D01*
X0086838Y0136689D01*
X0086935Y0136845D01*
X0087035Y0136999D01*
X0087139Y0137150D01*
X0087246Y0137299D01*
X0087357Y0137445D01*
X0087472Y0137588D01*
X0087590Y0137728D01*
X0087711Y0137866D01*
X0087836Y0138000D01*
X0087964Y0138132D01*
X0088096Y0138260D01*
X0088230Y0138385D01*
X0088368Y0138506D01*
X0088508Y0138624D01*
X0088651Y0138739D01*
X0088797Y0138850D01*
X0088946Y0138957D01*
X0089097Y0139061D01*
X0089251Y0139161D01*
X0089407Y0139258D01*
X0089566Y0139350D01*
X0089726Y0139438D01*
X0089889Y0139523D01*
X0090054Y0139603D01*
X0090221Y0139680D01*
X0090389Y0139752D01*
X0090560Y0139820D01*
X0090732Y0139884D01*
X0090905Y0139944D01*
X0091080Y0139999D01*
X0091256Y0140050D01*
X0091434Y0140097D01*
X0091612Y0140139D01*
X0091792Y0140177D01*
X0091972Y0140211D01*
X0092153Y0140240D01*
X0092335Y0140265D01*
X0092517Y0140285D01*
X0092700Y0140301D01*
X0092883Y0140312D01*
X0093067Y0140319D01*
X0093250Y0140321D01*
X0093433Y0140319D01*
X0093617Y0140312D01*
X0093800Y0140301D01*
X0093983Y0140285D01*
X0094165Y0140265D01*
X0094347Y0140240D01*
X0094528Y0140211D01*
X0094708Y0140177D01*
X0094888Y0140139D01*
X0095066Y0140097D01*
X0095244Y0140050D01*
X0095420Y0139999D01*
X0095595Y0139944D01*
X0095768Y0139884D01*
X0095940Y0139820D01*
X0096111Y0139752D01*
X0096279Y0139680D01*
X0096446Y0139603D01*
X0096611Y0139523D01*
X0096774Y0139438D01*
X0096934Y0139350D01*
X0097093Y0139258D01*
X0097249Y0139161D01*
X0097403Y0139061D01*
X0097554Y0138957D01*
X0097703Y0138850D01*
X0097849Y0138739D01*
X0097992Y0138624D01*
X0098132Y0138506D01*
X0098270Y0138385D01*
X0098404Y0138260D01*
X0098536Y0138132D01*
X0098664Y0138000D01*
X0098789Y0137866D01*
X0098910Y0137728D01*
X0099028Y0137588D01*
X0099143Y0137445D01*
X0099254Y0137299D01*
X0099361Y0137150D01*
X0099465Y0136999D01*
X0099565Y0136845D01*
X0099662Y0136689D01*
X0099754Y0136530D01*
X0099842Y0136370D01*
X0099927Y0136207D01*
X0100007Y0136042D01*
X0100084Y0135875D01*
X0100156Y0135707D01*
X0100224Y0135536D01*
X0100288Y0135364D01*
X0100348Y0135191D01*
X0100403Y0135016D01*
X0100454Y0134840D01*
X0100501Y0134662D01*
X0100543Y0134484D01*
X0100581Y0134304D01*
X0100615Y0134124D01*
X0100644Y0133943D01*
X0100669Y0133761D01*
X0100689Y0133579D01*
X0100705Y0133396D01*
X0100716Y0133213D01*
X0100723Y0133029D01*
X0100725Y0132846D01*
X0100723Y0132663D01*
X0100716Y0132479D01*
X0100705Y0132296D01*
X0100689Y0132113D01*
X0100669Y0131931D01*
X0100644Y0131749D01*
X0100615Y0131568D01*
X0100581Y0131388D01*
X0100543Y0131208D01*
X0100501Y0131030D01*
X0100454Y0130852D01*
X0100403Y0130676D01*
X0100348Y0130501D01*
X0100288Y0130328D01*
X0100224Y0130156D01*
X0100156Y0129985D01*
X0100084Y0129817D01*
X0100007Y0129650D01*
X0099927Y0129485D01*
X0099842Y0129322D01*
X0099754Y0129162D01*
X0099662Y0129003D01*
X0099565Y0128847D01*
X0099465Y0128693D01*
X0099361Y0128542D01*
X0099254Y0128393D01*
X0099143Y0128247D01*
X0099028Y0128104D01*
X0098910Y0127964D01*
X0098789Y0127826D01*
X0098664Y0127692D01*
X0098536Y0127560D01*
X0098404Y0127432D01*
X0098270Y0127307D01*
X0098132Y0127186D01*
X0097992Y0127068D01*
X0097849Y0126953D01*
X0097703Y0126842D01*
X0097554Y0126735D01*
X0097403Y0126631D01*
X0097249Y0126531D01*
X0097093Y0126434D01*
X0096934Y0126342D01*
X0096774Y0126254D01*
X0096611Y0126169D01*
X0096446Y0126089D01*
X0096279Y0126012D01*
X0096111Y0125940D01*
X0095940Y0125872D01*
X0095768Y0125808D01*
X0095595Y0125748D01*
X0095420Y0125693D01*
X0095244Y0125642D01*
X0095066Y0125595D01*
X0094888Y0125553D01*
X0094708Y0125515D01*
X0094528Y0125481D01*
X0094347Y0125452D01*
X0094165Y0125427D01*
X0093983Y0125407D01*
X0093800Y0125391D01*
X0093617Y0125380D01*
X0093433Y0125373D01*
X0093250Y0125371D01*
X0093067Y0125373D01*
X0092883Y0125380D01*
X0092700Y0125391D01*
X0092517Y0125407D01*
X0092335Y0125427D01*
X0092153Y0125452D01*
X0091972Y0125481D01*
X0091792Y0125515D01*
X0091612Y0125553D01*
X0091434Y0125595D01*
X0091256Y0125642D01*
X0091080Y0125693D01*
X0090905Y0125748D01*
X0090732Y0125808D01*
X0090560Y0125872D01*
X0090389Y0125940D01*
X0090221Y0126012D01*
X0090054Y0126089D01*
X0089889Y0126169D01*
X0089726Y0126254D01*
X0089566Y0126342D01*
X0089407Y0126434D01*
X0089251Y0126531D01*
X0089097Y0126631D01*
X0088946Y0126735D01*
X0088797Y0126842D01*
X0088651Y0126953D01*
X0088508Y0127068D01*
X0088368Y0127186D01*
X0088230Y0127307D01*
X0088096Y0127432D01*
X0087964Y0127560D01*
X0087836Y0127692D01*
X0087711Y0127826D01*
X0087590Y0127964D01*
X0087472Y0128104D01*
X0087357Y0128247D01*
X0087246Y0128393D01*
X0087139Y0128542D01*
X0087035Y0128693D01*
X0086935Y0128847D01*
X0086838Y0129003D01*
X0086746Y0129162D01*
X0086658Y0129322D01*
X0086573Y0129485D01*
X0086493Y0129650D01*
X0086416Y0129817D01*
X0086344Y0129985D01*
X0086276Y0130156D01*
X0086212Y0130328D01*
X0086152Y0130501D01*
X0086097Y0130676D01*
X0086046Y0130852D01*
X0085999Y0131030D01*
X0085957Y0131208D01*
X0085919Y0131388D01*
X0085885Y0131568D01*
X0085856Y0131749D01*
X0085831Y0131931D01*
X0085811Y0132113D01*
X0085795Y0132296D01*
X0085784Y0132479D01*
X0085777Y0132663D01*
X0085775Y0132846D01*
X0285775Y0127846D02*
X0285777Y0128029D01*
X0285784Y0128213D01*
X0285795Y0128396D01*
X0285811Y0128579D01*
X0285831Y0128761D01*
X0285856Y0128943D01*
X0285885Y0129124D01*
X0285919Y0129304D01*
X0285957Y0129484D01*
X0285999Y0129662D01*
X0286046Y0129840D01*
X0286097Y0130016D01*
X0286152Y0130191D01*
X0286212Y0130364D01*
X0286276Y0130536D01*
X0286344Y0130707D01*
X0286416Y0130875D01*
X0286493Y0131042D01*
X0286573Y0131207D01*
X0286658Y0131370D01*
X0286746Y0131530D01*
X0286838Y0131689D01*
X0286935Y0131845D01*
X0287035Y0131999D01*
X0287139Y0132150D01*
X0287246Y0132299D01*
X0287357Y0132445D01*
X0287472Y0132588D01*
X0287590Y0132728D01*
X0287711Y0132866D01*
X0287836Y0133000D01*
X0287964Y0133132D01*
X0288096Y0133260D01*
X0288230Y0133385D01*
X0288368Y0133506D01*
X0288508Y0133624D01*
X0288651Y0133739D01*
X0288797Y0133850D01*
X0288946Y0133957D01*
X0289097Y0134061D01*
X0289251Y0134161D01*
X0289407Y0134258D01*
X0289566Y0134350D01*
X0289726Y0134438D01*
X0289889Y0134523D01*
X0290054Y0134603D01*
X0290221Y0134680D01*
X0290389Y0134752D01*
X0290560Y0134820D01*
X0290732Y0134884D01*
X0290905Y0134944D01*
X0291080Y0134999D01*
X0291256Y0135050D01*
X0291434Y0135097D01*
X0291612Y0135139D01*
X0291792Y0135177D01*
X0291972Y0135211D01*
X0292153Y0135240D01*
X0292335Y0135265D01*
X0292517Y0135285D01*
X0292700Y0135301D01*
X0292883Y0135312D01*
X0293067Y0135319D01*
X0293250Y0135321D01*
X0293433Y0135319D01*
X0293617Y0135312D01*
X0293800Y0135301D01*
X0293983Y0135285D01*
X0294165Y0135265D01*
X0294347Y0135240D01*
X0294528Y0135211D01*
X0294708Y0135177D01*
X0294888Y0135139D01*
X0295066Y0135097D01*
X0295244Y0135050D01*
X0295420Y0134999D01*
X0295595Y0134944D01*
X0295768Y0134884D01*
X0295940Y0134820D01*
X0296111Y0134752D01*
X0296279Y0134680D01*
X0296446Y0134603D01*
X0296611Y0134523D01*
X0296774Y0134438D01*
X0296934Y0134350D01*
X0297093Y0134258D01*
X0297249Y0134161D01*
X0297403Y0134061D01*
X0297554Y0133957D01*
X0297703Y0133850D01*
X0297849Y0133739D01*
X0297992Y0133624D01*
X0298132Y0133506D01*
X0298270Y0133385D01*
X0298404Y0133260D01*
X0298536Y0133132D01*
X0298664Y0133000D01*
X0298789Y0132866D01*
X0298910Y0132728D01*
X0299028Y0132588D01*
X0299143Y0132445D01*
X0299254Y0132299D01*
X0299361Y0132150D01*
X0299465Y0131999D01*
X0299565Y0131845D01*
X0299662Y0131689D01*
X0299754Y0131530D01*
X0299842Y0131370D01*
X0299927Y0131207D01*
X0300007Y0131042D01*
X0300084Y0130875D01*
X0300156Y0130707D01*
X0300224Y0130536D01*
X0300288Y0130364D01*
X0300348Y0130191D01*
X0300403Y0130016D01*
X0300454Y0129840D01*
X0300501Y0129662D01*
X0300543Y0129484D01*
X0300581Y0129304D01*
X0300615Y0129124D01*
X0300644Y0128943D01*
X0300669Y0128761D01*
X0300689Y0128579D01*
X0300705Y0128396D01*
X0300716Y0128213D01*
X0300723Y0128029D01*
X0300725Y0127846D01*
X0300723Y0127663D01*
X0300716Y0127479D01*
X0300705Y0127296D01*
X0300689Y0127113D01*
X0300669Y0126931D01*
X0300644Y0126749D01*
X0300615Y0126568D01*
X0300581Y0126388D01*
X0300543Y0126208D01*
X0300501Y0126030D01*
X0300454Y0125852D01*
X0300403Y0125676D01*
X0300348Y0125501D01*
X0300288Y0125328D01*
X0300224Y0125156D01*
X0300156Y0124985D01*
X0300084Y0124817D01*
X0300007Y0124650D01*
X0299927Y0124485D01*
X0299842Y0124322D01*
X0299754Y0124162D01*
X0299662Y0124003D01*
X0299565Y0123847D01*
X0299465Y0123693D01*
X0299361Y0123542D01*
X0299254Y0123393D01*
X0299143Y0123247D01*
X0299028Y0123104D01*
X0298910Y0122964D01*
X0298789Y0122826D01*
X0298664Y0122692D01*
X0298536Y0122560D01*
X0298404Y0122432D01*
X0298270Y0122307D01*
X0298132Y0122186D01*
X0297992Y0122068D01*
X0297849Y0121953D01*
X0297703Y0121842D01*
X0297554Y0121735D01*
X0297403Y0121631D01*
X0297249Y0121531D01*
X0297093Y0121434D01*
X0296934Y0121342D01*
X0296774Y0121254D01*
X0296611Y0121169D01*
X0296446Y0121089D01*
X0296279Y0121012D01*
X0296111Y0120940D01*
X0295940Y0120872D01*
X0295768Y0120808D01*
X0295595Y0120748D01*
X0295420Y0120693D01*
X0295244Y0120642D01*
X0295066Y0120595D01*
X0294888Y0120553D01*
X0294708Y0120515D01*
X0294528Y0120481D01*
X0294347Y0120452D01*
X0294165Y0120427D01*
X0293983Y0120407D01*
X0293800Y0120391D01*
X0293617Y0120380D01*
X0293433Y0120373D01*
X0293250Y0120371D01*
X0293067Y0120373D01*
X0292883Y0120380D01*
X0292700Y0120391D01*
X0292517Y0120407D01*
X0292335Y0120427D01*
X0292153Y0120452D01*
X0291972Y0120481D01*
X0291792Y0120515D01*
X0291612Y0120553D01*
X0291434Y0120595D01*
X0291256Y0120642D01*
X0291080Y0120693D01*
X0290905Y0120748D01*
X0290732Y0120808D01*
X0290560Y0120872D01*
X0290389Y0120940D01*
X0290221Y0121012D01*
X0290054Y0121089D01*
X0289889Y0121169D01*
X0289726Y0121254D01*
X0289566Y0121342D01*
X0289407Y0121434D01*
X0289251Y0121531D01*
X0289097Y0121631D01*
X0288946Y0121735D01*
X0288797Y0121842D01*
X0288651Y0121953D01*
X0288508Y0122068D01*
X0288368Y0122186D01*
X0288230Y0122307D01*
X0288096Y0122432D01*
X0287964Y0122560D01*
X0287836Y0122692D01*
X0287711Y0122826D01*
X0287590Y0122964D01*
X0287472Y0123104D01*
X0287357Y0123247D01*
X0287246Y0123393D01*
X0287139Y0123542D01*
X0287035Y0123693D01*
X0286935Y0123847D01*
X0286838Y0124003D01*
X0286746Y0124162D01*
X0286658Y0124322D01*
X0286573Y0124485D01*
X0286493Y0124650D01*
X0286416Y0124817D01*
X0286344Y0124985D01*
X0286276Y0125156D01*
X0286212Y0125328D01*
X0286152Y0125501D01*
X0286097Y0125676D01*
X0286046Y0125852D01*
X0285999Y0126030D01*
X0285957Y0126208D01*
X0285919Y0126388D01*
X0285885Y0126568D01*
X0285856Y0126749D01*
X0285831Y0126931D01*
X0285811Y0127113D01*
X0285795Y0127296D01*
X0285784Y0127479D01*
X0285777Y0127663D01*
X0285775Y0127846D01*
X0285775Y0067846D02*
X0285777Y0068029D01*
X0285784Y0068213D01*
X0285795Y0068396D01*
X0285811Y0068579D01*
X0285831Y0068761D01*
X0285856Y0068943D01*
X0285885Y0069124D01*
X0285919Y0069304D01*
X0285957Y0069484D01*
X0285999Y0069662D01*
X0286046Y0069840D01*
X0286097Y0070016D01*
X0286152Y0070191D01*
X0286212Y0070364D01*
X0286276Y0070536D01*
X0286344Y0070707D01*
X0286416Y0070875D01*
X0286493Y0071042D01*
X0286573Y0071207D01*
X0286658Y0071370D01*
X0286746Y0071530D01*
X0286838Y0071689D01*
X0286935Y0071845D01*
X0287035Y0071999D01*
X0287139Y0072150D01*
X0287246Y0072299D01*
X0287357Y0072445D01*
X0287472Y0072588D01*
X0287590Y0072728D01*
X0287711Y0072866D01*
X0287836Y0073000D01*
X0287964Y0073132D01*
X0288096Y0073260D01*
X0288230Y0073385D01*
X0288368Y0073506D01*
X0288508Y0073624D01*
X0288651Y0073739D01*
X0288797Y0073850D01*
X0288946Y0073957D01*
X0289097Y0074061D01*
X0289251Y0074161D01*
X0289407Y0074258D01*
X0289566Y0074350D01*
X0289726Y0074438D01*
X0289889Y0074523D01*
X0290054Y0074603D01*
X0290221Y0074680D01*
X0290389Y0074752D01*
X0290560Y0074820D01*
X0290732Y0074884D01*
X0290905Y0074944D01*
X0291080Y0074999D01*
X0291256Y0075050D01*
X0291434Y0075097D01*
X0291612Y0075139D01*
X0291792Y0075177D01*
X0291972Y0075211D01*
X0292153Y0075240D01*
X0292335Y0075265D01*
X0292517Y0075285D01*
X0292700Y0075301D01*
X0292883Y0075312D01*
X0293067Y0075319D01*
X0293250Y0075321D01*
X0293433Y0075319D01*
X0293617Y0075312D01*
X0293800Y0075301D01*
X0293983Y0075285D01*
X0294165Y0075265D01*
X0294347Y0075240D01*
X0294528Y0075211D01*
X0294708Y0075177D01*
X0294888Y0075139D01*
X0295066Y0075097D01*
X0295244Y0075050D01*
X0295420Y0074999D01*
X0295595Y0074944D01*
X0295768Y0074884D01*
X0295940Y0074820D01*
X0296111Y0074752D01*
X0296279Y0074680D01*
X0296446Y0074603D01*
X0296611Y0074523D01*
X0296774Y0074438D01*
X0296934Y0074350D01*
X0297093Y0074258D01*
X0297249Y0074161D01*
X0297403Y0074061D01*
X0297554Y0073957D01*
X0297703Y0073850D01*
X0297849Y0073739D01*
X0297992Y0073624D01*
X0298132Y0073506D01*
X0298270Y0073385D01*
X0298404Y0073260D01*
X0298536Y0073132D01*
X0298664Y0073000D01*
X0298789Y0072866D01*
X0298910Y0072728D01*
X0299028Y0072588D01*
X0299143Y0072445D01*
X0299254Y0072299D01*
X0299361Y0072150D01*
X0299465Y0071999D01*
X0299565Y0071845D01*
X0299662Y0071689D01*
X0299754Y0071530D01*
X0299842Y0071370D01*
X0299927Y0071207D01*
X0300007Y0071042D01*
X0300084Y0070875D01*
X0300156Y0070707D01*
X0300224Y0070536D01*
X0300288Y0070364D01*
X0300348Y0070191D01*
X0300403Y0070016D01*
X0300454Y0069840D01*
X0300501Y0069662D01*
X0300543Y0069484D01*
X0300581Y0069304D01*
X0300615Y0069124D01*
X0300644Y0068943D01*
X0300669Y0068761D01*
X0300689Y0068579D01*
X0300705Y0068396D01*
X0300716Y0068213D01*
X0300723Y0068029D01*
X0300725Y0067846D01*
X0300723Y0067663D01*
X0300716Y0067479D01*
X0300705Y0067296D01*
X0300689Y0067113D01*
X0300669Y0066931D01*
X0300644Y0066749D01*
X0300615Y0066568D01*
X0300581Y0066388D01*
X0300543Y0066208D01*
X0300501Y0066030D01*
X0300454Y0065852D01*
X0300403Y0065676D01*
X0300348Y0065501D01*
X0300288Y0065328D01*
X0300224Y0065156D01*
X0300156Y0064985D01*
X0300084Y0064817D01*
X0300007Y0064650D01*
X0299927Y0064485D01*
X0299842Y0064322D01*
X0299754Y0064162D01*
X0299662Y0064003D01*
X0299565Y0063847D01*
X0299465Y0063693D01*
X0299361Y0063542D01*
X0299254Y0063393D01*
X0299143Y0063247D01*
X0299028Y0063104D01*
X0298910Y0062964D01*
X0298789Y0062826D01*
X0298664Y0062692D01*
X0298536Y0062560D01*
X0298404Y0062432D01*
X0298270Y0062307D01*
X0298132Y0062186D01*
X0297992Y0062068D01*
X0297849Y0061953D01*
X0297703Y0061842D01*
X0297554Y0061735D01*
X0297403Y0061631D01*
X0297249Y0061531D01*
X0297093Y0061434D01*
X0296934Y0061342D01*
X0296774Y0061254D01*
X0296611Y0061169D01*
X0296446Y0061089D01*
X0296279Y0061012D01*
X0296111Y0060940D01*
X0295940Y0060872D01*
X0295768Y0060808D01*
X0295595Y0060748D01*
X0295420Y0060693D01*
X0295244Y0060642D01*
X0295066Y0060595D01*
X0294888Y0060553D01*
X0294708Y0060515D01*
X0294528Y0060481D01*
X0294347Y0060452D01*
X0294165Y0060427D01*
X0293983Y0060407D01*
X0293800Y0060391D01*
X0293617Y0060380D01*
X0293433Y0060373D01*
X0293250Y0060371D01*
X0293067Y0060373D01*
X0292883Y0060380D01*
X0292700Y0060391D01*
X0292517Y0060407D01*
X0292335Y0060427D01*
X0292153Y0060452D01*
X0291972Y0060481D01*
X0291792Y0060515D01*
X0291612Y0060553D01*
X0291434Y0060595D01*
X0291256Y0060642D01*
X0291080Y0060693D01*
X0290905Y0060748D01*
X0290732Y0060808D01*
X0290560Y0060872D01*
X0290389Y0060940D01*
X0290221Y0061012D01*
X0290054Y0061089D01*
X0289889Y0061169D01*
X0289726Y0061254D01*
X0289566Y0061342D01*
X0289407Y0061434D01*
X0289251Y0061531D01*
X0289097Y0061631D01*
X0288946Y0061735D01*
X0288797Y0061842D01*
X0288651Y0061953D01*
X0288508Y0062068D01*
X0288368Y0062186D01*
X0288230Y0062307D01*
X0288096Y0062432D01*
X0287964Y0062560D01*
X0287836Y0062692D01*
X0287711Y0062826D01*
X0287590Y0062964D01*
X0287472Y0063104D01*
X0287357Y0063247D01*
X0287246Y0063393D01*
X0287139Y0063542D01*
X0287035Y0063693D01*
X0286935Y0063847D01*
X0286838Y0064003D01*
X0286746Y0064162D01*
X0286658Y0064322D01*
X0286573Y0064485D01*
X0286493Y0064650D01*
X0286416Y0064817D01*
X0286344Y0064985D01*
X0286276Y0065156D01*
X0286212Y0065328D01*
X0286152Y0065501D01*
X0286097Y0065676D01*
X0286046Y0065852D01*
X0285999Y0066030D01*
X0285957Y0066208D01*
X0285919Y0066388D01*
X0285885Y0066568D01*
X0285856Y0066749D01*
X0285831Y0066931D01*
X0285811Y0067113D01*
X0285795Y0067296D01*
X0285784Y0067479D01*
X0285777Y0067663D01*
X0285775Y0067846D01*
D11*
X0286951Y0088791D02*
X0291281Y0088791D01*
X0291281Y0106901D01*
X0290888Y0106901D01*
X0286951Y0106507D02*
X0286951Y0088791D01*
X0291281Y0088791D02*
X0297187Y0088791D01*
X0297187Y0106507D01*
X0286951Y0106507D01*
X0291281Y0101783D02*
X0291157Y0101781D01*
X0291034Y0101775D01*
X0290910Y0101766D01*
X0290788Y0101752D01*
X0290665Y0101735D01*
X0290543Y0101713D01*
X0290422Y0101688D01*
X0290302Y0101659D01*
X0290183Y0101627D01*
X0290064Y0101590D01*
X0289947Y0101550D01*
X0289832Y0101507D01*
X0289717Y0101459D01*
X0289605Y0101408D01*
X0289494Y0101354D01*
X0289384Y0101296D01*
X0289277Y0101235D01*
X0289171Y0101170D01*
X0289068Y0101102D01*
X0288967Y0101031D01*
X0288868Y0100957D01*
X0288771Y0100880D01*
X0288677Y0100799D01*
X0288586Y0100716D01*
X0288497Y0100630D01*
X0288411Y0100541D01*
X0288328Y0100450D01*
X0288247Y0100356D01*
X0288170Y0100259D01*
X0288096Y0100160D01*
X0288025Y0100059D01*
X0287957Y0099956D01*
X0287892Y0099850D01*
X0287831Y0099743D01*
X0287773Y0099633D01*
X0287719Y0099522D01*
X0287668Y0099410D01*
X0287620Y0099295D01*
X0287577Y0099180D01*
X0287537Y0099063D01*
X0287500Y0098944D01*
X0287468Y0098825D01*
X0287439Y0098705D01*
X0287414Y0098584D01*
X0287392Y0098462D01*
X0287375Y0098339D01*
X0287361Y0098217D01*
X0287352Y0098093D01*
X0287346Y0097970D01*
X0287344Y0097846D01*
X0287346Y0097722D01*
X0287352Y0097599D01*
X0287361Y0097475D01*
X0287375Y0097353D01*
X0287392Y0097230D01*
X0287414Y0097108D01*
X0287439Y0096987D01*
X0287468Y0096867D01*
X0287500Y0096748D01*
X0287537Y0096629D01*
X0287577Y0096512D01*
X0287620Y0096397D01*
X0287668Y0096282D01*
X0287719Y0096170D01*
X0287773Y0096059D01*
X0287831Y0095949D01*
X0287892Y0095842D01*
X0287957Y0095736D01*
X0288025Y0095633D01*
X0288096Y0095532D01*
X0288170Y0095433D01*
X0288247Y0095336D01*
X0288328Y0095242D01*
X0288411Y0095151D01*
X0288497Y0095062D01*
X0288586Y0094976D01*
X0288677Y0094893D01*
X0288771Y0094812D01*
X0288868Y0094735D01*
X0288967Y0094661D01*
X0289068Y0094590D01*
X0289171Y0094522D01*
X0289277Y0094457D01*
X0289384Y0094396D01*
X0289494Y0094338D01*
X0289605Y0094284D01*
X0289717Y0094233D01*
X0289832Y0094185D01*
X0289947Y0094142D01*
X0290064Y0094102D01*
X0290183Y0094065D01*
X0290302Y0094033D01*
X0290422Y0094004D01*
X0290543Y0093979D01*
X0290665Y0093957D01*
X0290788Y0093940D01*
X0290910Y0093926D01*
X0291034Y0093917D01*
X0291157Y0093911D01*
X0291281Y0093909D01*
X0168250Y0172846D02*
X0108250Y0172846D01*
X0108250Y0182846D01*
X0168250Y0182846D01*
X0168250Y0172846D01*
X0132305Y0136783D02*
X0114589Y0136783D01*
X0114589Y0126547D01*
X0132305Y0126547D01*
X0132305Y0130877D01*
X0114195Y0130877D01*
X0114195Y0130484D01*
X0119313Y0130877D02*
X0119315Y0130753D01*
X0119321Y0130630D01*
X0119330Y0130506D01*
X0119344Y0130384D01*
X0119361Y0130261D01*
X0119383Y0130139D01*
X0119408Y0130018D01*
X0119437Y0129898D01*
X0119469Y0129779D01*
X0119506Y0129660D01*
X0119546Y0129543D01*
X0119589Y0129428D01*
X0119637Y0129313D01*
X0119688Y0129201D01*
X0119742Y0129090D01*
X0119800Y0128980D01*
X0119861Y0128873D01*
X0119926Y0128767D01*
X0119994Y0128664D01*
X0120065Y0128563D01*
X0120139Y0128464D01*
X0120216Y0128367D01*
X0120297Y0128273D01*
X0120380Y0128182D01*
X0120466Y0128093D01*
X0120555Y0128007D01*
X0120646Y0127924D01*
X0120740Y0127843D01*
X0120837Y0127766D01*
X0120936Y0127692D01*
X0121037Y0127621D01*
X0121140Y0127553D01*
X0121246Y0127488D01*
X0121353Y0127427D01*
X0121463Y0127369D01*
X0121574Y0127315D01*
X0121686Y0127264D01*
X0121801Y0127216D01*
X0121916Y0127173D01*
X0122033Y0127133D01*
X0122152Y0127096D01*
X0122271Y0127064D01*
X0122391Y0127035D01*
X0122512Y0127010D01*
X0122634Y0126988D01*
X0122757Y0126971D01*
X0122879Y0126957D01*
X0123003Y0126948D01*
X0123126Y0126942D01*
X0123250Y0126940D01*
X0123374Y0126942D01*
X0123497Y0126948D01*
X0123621Y0126957D01*
X0123743Y0126971D01*
X0123866Y0126988D01*
X0123988Y0127010D01*
X0124109Y0127035D01*
X0124229Y0127064D01*
X0124348Y0127096D01*
X0124467Y0127133D01*
X0124584Y0127173D01*
X0124699Y0127216D01*
X0124814Y0127264D01*
X0124926Y0127315D01*
X0125037Y0127369D01*
X0125147Y0127427D01*
X0125254Y0127488D01*
X0125360Y0127553D01*
X0125463Y0127621D01*
X0125564Y0127692D01*
X0125663Y0127766D01*
X0125760Y0127843D01*
X0125854Y0127924D01*
X0125945Y0128007D01*
X0126034Y0128093D01*
X0126120Y0128182D01*
X0126203Y0128273D01*
X0126284Y0128367D01*
X0126361Y0128464D01*
X0126435Y0128563D01*
X0126506Y0128664D01*
X0126574Y0128767D01*
X0126639Y0128873D01*
X0126700Y0128980D01*
X0126758Y0129090D01*
X0126812Y0129201D01*
X0126863Y0129313D01*
X0126911Y0129428D01*
X0126954Y0129543D01*
X0126994Y0129660D01*
X0127031Y0129779D01*
X0127063Y0129898D01*
X0127092Y0130018D01*
X0127117Y0130139D01*
X0127139Y0130261D01*
X0127156Y0130384D01*
X0127170Y0130506D01*
X0127179Y0130630D01*
X0127185Y0130753D01*
X0127187Y0130877D01*
X0132305Y0130877D02*
X0132305Y0136783D01*
X0048250Y0157846D02*
X0045750Y0160346D01*
X0048250Y0157846D02*
X0045750Y0155346D01*
X0048250Y0157846D02*
X0038250Y0157846D01*
D12*
X0041911Y0175641D02*
X0001242Y0175641D01*
X0041912Y0175642D02*
X0041915Y0175765D01*
X0041921Y0175888D01*
X0041931Y0176010D01*
X0041945Y0176132D01*
X0041963Y0176254D01*
X0041985Y0176375D01*
X0042011Y0176496D01*
X0042040Y0176615D01*
X0042073Y0176734D01*
X0042110Y0176851D01*
X0042150Y0176967D01*
X0042194Y0177082D01*
X0042242Y0177196D01*
X0042293Y0177308D01*
X0042348Y0177418D01*
X0042406Y0177526D01*
X0042468Y0177633D01*
X0042532Y0177737D01*
X0042600Y0177840D01*
X0042672Y0177940D01*
X0042746Y0178038D01*
X0042823Y0178134D01*
X0042904Y0178227D01*
X0042987Y0178318D01*
X0043073Y0178406D01*
X0043162Y0178491D01*
X0043253Y0178573D01*
X0043347Y0178653D01*
X0043444Y0178729D01*
X0043543Y0178802D01*
X0043644Y0178873D01*
X0043747Y0178940D01*
X0043852Y0179004D01*
X0043959Y0179064D01*
X0044068Y0179121D01*
X0044179Y0179175D01*
X0044291Y0179225D01*
X0044405Y0179271D01*
X0044521Y0179314D01*
X0044637Y0179353D01*
X0044755Y0179389D01*
X0044874Y0179421D01*
X0044994Y0179449D01*
X0045114Y0179473D01*
X0045236Y0179494D01*
X0045358Y0179511D01*
X0045480Y0179523D01*
X0045603Y0179532D01*
X0045726Y0179538D01*
X0045849Y0179539D01*
X0045848Y0179539D02*
X0045858Y0179539D01*
X0045981Y0179537D01*
X0046105Y0179531D01*
X0046228Y0179522D01*
X0046350Y0179508D01*
X0046472Y0179491D01*
X0046594Y0179469D01*
X0046715Y0179444D01*
X0046835Y0179416D01*
X0046954Y0179383D01*
X0047072Y0179347D01*
X0047189Y0179307D01*
X0047304Y0179263D01*
X0047418Y0179216D01*
X0047530Y0179165D01*
X0047641Y0179111D01*
X0047750Y0179053D01*
X0047858Y0178992D01*
X0047963Y0178928D01*
X0048066Y0178860D01*
X0048167Y0178789D01*
X0048265Y0178715D01*
X0048362Y0178638D01*
X0048456Y0178557D01*
X0048547Y0178474D01*
X0048636Y0178389D01*
X0048721Y0178300D01*
X0048804Y0178209D01*
X0048885Y0178115D01*
X0048962Y0178018D01*
X0049036Y0177920D01*
X0049107Y0177819D01*
X0049175Y0177716D01*
X0049239Y0177611D01*
X0049300Y0177503D01*
X0049358Y0177394D01*
X0049412Y0177283D01*
X0049463Y0177171D01*
X0049510Y0177057D01*
X0049554Y0176942D01*
X0049594Y0176825D01*
X0049630Y0176707D01*
X0049663Y0176588D01*
X0049691Y0176468D01*
X0049716Y0176347D01*
X0049738Y0176225D01*
X0049755Y0176103D01*
X0049769Y0175981D01*
X0049778Y0175858D01*
X0049784Y0175734D01*
X0049786Y0175611D01*
X0049785Y0175611D02*
X0049785Y0110087D01*
X0049783Y0109963D01*
X0049777Y0109840D01*
X0049768Y0109717D01*
X0049754Y0109594D01*
X0049737Y0109472D01*
X0049715Y0109350D01*
X0049690Y0109229D01*
X0049661Y0109109D01*
X0049629Y0108989D01*
X0049592Y0108871D01*
X0049552Y0108754D01*
X0049509Y0108639D01*
X0049461Y0108525D01*
X0049411Y0108412D01*
X0049356Y0108301D01*
X0049298Y0108192D01*
X0049237Y0108084D01*
X0049173Y0107979D01*
X0049105Y0107876D01*
X0049034Y0107775D01*
X0048959Y0107676D01*
X0048882Y0107579D01*
X0048802Y0107485D01*
X0048719Y0107394D01*
X0048633Y0107305D01*
X0048544Y0107219D01*
X0048453Y0107136D01*
X0048359Y0107056D01*
X0048262Y0106979D01*
X0048163Y0106904D01*
X0048062Y0106833D01*
X0047959Y0106765D01*
X0047854Y0106701D01*
X0047746Y0106640D01*
X0047637Y0106582D01*
X0047526Y0106527D01*
X0047413Y0106477D01*
X0047299Y0106429D01*
X0047184Y0106386D01*
X0047067Y0106346D01*
X0046949Y0106309D01*
X0046829Y0106277D01*
X0046709Y0106248D01*
X0046588Y0106223D01*
X0046466Y0106201D01*
X0046344Y0106184D01*
X0046221Y0106170D01*
X0046098Y0106161D01*
X0045975Y0106155D01*
X0045851Y0106153D01*
X0045848Y0106153D01*
X0045848Y0106154D02*
X0045723Y0106153D01*
X0045599Y0106157D01*
X0045475Y0106165D01*
X0045351Y0106177D01*
X0045227Y0106192D01*
X0045104Y0106211D01*
X0044982Y0106235D01*
X0044860Y0106262D01*
X0044740Y0106293D01*
X0044620Y0106327D01*
X0044501Y0106366D01*
X0044384Y0106408D01*
X0044268Y0106453D01*
X0044154Y0106503D01*
X0044041Y0106556D01*
X0043930Y0106612D01*
X0043821Y0106672D01*
X0043714Y0106735D01*
X0043609Y0106802D01*
X0043506Y0106872D01*
X0043405Y0106945D01*
X0043306Y0107021D01*
X0043210Y0107100D01*
X0043117Y0107183D01*
X0043026Y0107268D01*
X0042938Y0107356D01*
X0042853Y0107446D01*
X0042770Y0107540D01*
X0042691Y0107636D01*
X0042614Y0107734D01*
X0042541Y0107835D01*
X0042471Y0107938D01*
X0042404Y0108043D01*
X0042341Y0108150D01*
X0042280Y0108259D01*
X0042224Y0108370D01*
X0042171Y0108482D01*
X0042121Y0108597D01*
X0042075Y0108712D01*
X0042033Y0108830D01*
X0041994Y0108948D01*
X0041959Y0109067D01*
X0041928Y0109188D01*
X0041901Y0109310D01*
X0041878Y0109432D01*
X0041858Y0109555D01*
X0041842Y0109678D01*
X0041831Y0109802D01*
X0041823Y0109927D01*
X0041819Y0110051D01*
X0001242Y0110051D01*
D13*
X0038446Y0116215D02*
X0038446Y0118516D01*
X0039213Y0119284D01*
X0040748Y0119284D01*
X0041515Y0118516D01*
X0041515Y0116215D01*
X0043050Y0116215D02*
X0038446Y0116215D01*
X0039213Y0120818D02*
X0042283Y0120818D01*
X0043050Y0121586D01*
X0043050Y0123120D01*
X0042283Y0123888D01*
X0043050Y0125422D02*
X0038446Y0125422D01*
X0038446Y0127724D01*
X0039213Y0128492D01*
X0039981Y0128492D01*
X0040748Y0127724D01*
X0040748Y0125422D01*
X0039213Y0123888D02*
X0038446Y0123120D01*
X0038446Y0121586D01*
X0039213Y0120818D01*
X0043050Y0125422D02*
X0043050Y0127724D01*
X0042283Y0128492D01*
X0041515Y0128492D01*
X0040748Y0127724D01*
X0040748Y0134630D02*
X0039981Y0135398D01*
X0039981Y0136932D01*
X0040748Y0137700D01*
X0041515Y0137700D01*
X0041515Y0134630D01*
X0040748Y0134630D02*
X0042283Y0134630D01*
X0043050Y0135398D01*
X0043050Y0136932D01*
X0042283Y0139234D02*
X0040748Y0139234D01*
X0039981Y0140001D01*
X0039981Y0142303D01*
X0038446Y0142303D02*
X0043050Y0142303D01*
X0043050Y0140001D01*
X0042283Y0139234D01*
X0042283Y0143838D02*
X0043050Y0144605D01*
X0043050Y0146907D01*
X0043817Y0146907D02*
X0039981Y0146907D01*
X0039981Y0144605D01*
X0040748Y0143838D01*
X0042283Y0143838D01*
X0044585Y0145373D02*
X0044585Y0146140D01*
X0043817Y0146907D01*
X0042283Y0148442D02*
X0040748Y0148442D01*
X0039981Y0149209D01*
X0039981Y0150744D01*
X0040748Y0151511D01*
X0041515Y0151511D01*
X0041515Y0148442D01*
X0042283Y0148442D02*
X0043050Y0149209D01*
X0043050Y0150744D01*
D14*
X0158477Y0166846D02*
X0161146Y0166846D01*
X0158477Y0169515D01*
X0158477Y0170182D01*
X0159144Y0170849D01*
X0160479Y0170849D01*
X0161146Y0170182D01*
X0163081Y0170849D02*
X0164416Y0170849D01*
X0163748Y0170849D02*
X0163748Y0167513D01*
X0164416Y0166846D01*
X0165083Y0166846D01*
X0165750Y0167513D01*
M02*
