G75*
%MOIN*%
%OFA0B0*%
%FSLAX25Y25*%
%IPPOS*%
%LPD*%
%AMOC8*
5,1,8,0,0,1.08239X$1,22.5*
%
%ADD10C,0.00000*%
%ADD11C,0.01600*%
%ADD12C,0.02756*%
%ADD13C,0.00300*%
%ADD14C,0.00100*%
%ADD15C,0.00500*%
%ADD16C,0.00400*%
D10*
X0013250Y0007846D02*
X0013250Y0186547D01*
X0308171Y0186547D01*
X0308171Y0007846D01*
X0013250Y0007846D01*
X0085775Y0132846D02*
X0085777Y0133029D01*
X0085784Y0133213D01*
X0085795Y0133396D01*
X0085811Y0133579D01*
X0085831Y0133761D01*
X0085856Y0133943D01*
X0085885Y0134124D01*
X0085919Y0134304D01*
X0085957Y0134484D01*
X0085999Y0134662D01*
X0086046Y0134840D01*
X0086097Y0135016D01*
X0086152Y0135191D01*
X0086212Y0135364D01*
X0086276Y0135536D01*
X0086344Y0135707D01*
X0086416Y0135875D01*
X0086493Y0136042D01*
X0086573Y0136207D01*
X0086658Y0136370D01*
X0086746Y0136530D01*
X0086838Y0136689D01*
X0086935Y0136845D01*
X0087035Y0136999D01*
X0087139Y0137150D01*
X0087246Y0137299D01*
X0087357Y0137445D01*
X0087472Y0137588D01*
X0087590Y0137728D01*
X0087711Y0137866D01*
X0087836Y0138000D01*
X0087964Y0138132D01*
X0088096Y0138260D01*
X0088230Y0138385D01*
X0088368Y0138506D01*
X0088508Y0138624D01*
X0088651Y0138739D01*
X0088797Y0138850D01*
X0088946Y0138957D01*
X0089097Y0139061D01*
X0089251Y0139161D01*
X0089407Y0139258D01*
X0089566Y0139350D01*
X0089726Y0139438D01*
X0089889Y0139523D01*
X0090054Y0139603D01*
X0090221Y0139680D01*
X0090389Y0139752D01*
X0090560Y0139820D01*
X0090732Y0139884D01*
X0090905Y0139944D01*
X0091080Y0139999D01*
X0091256Y0140050D01*
X0091434Y0140097D01*
X0091612Y0140139D01*
X0091792Y0140177D01*
X0091972Y0140211D01*
X0092153Y0140240D01*
X0092335Y0140265D01*
X0092517Y0140285D01*
X0092700Y0140301D01*
X0092883Y0140312D01*
X0093067Y0140319D01*
X0093250Y0140321D01*
X0093433Y0140319D01*
X0093617Y0140312D01*
X0093800Y0140301D01*
X0093983Y0140285D01*
X0094165Y0140265D01*
X0094347Y0140240D01*
X0094528Y0140211D01*
X0094708Y0140177D01*
X0094888Y0140139D01*
X0095066Y0140097D01*
X0095244Y0140050D01*
X0095420Y0139999D01*
X0095595Y0139944D01*
X0095768Y0139884D01*
X0095940Y0139820D01*
X0096111Y0139752D01*
X0096279Y0139680D01*
X0096446Y0139603D01*
X0096611Y0139523D01*
X0096774Y0139438D01*
X0096934Y0139350D01*
X0097093Y0139258D01*
X0097249Y0139161D01*
X0097403Y0139061D01*
X0097554Y0138957D01*
X0097703Y0138850D01*
X0097849Y0138739D01*
X0097992Y0138624D01*
X0098132Y0138506D01*
X0098270Y0138385D01*
X0098404Y0138260D01*
X0098536Y0138132D01*
X0098664Y0138000D01*
X0098789Y0137866D01*
X0098910Y0137728D01*
X0099028Y0137588D01*
X0099143Y0137445D01*
X0099254Y0137299D01*
X0099361Y0137150D01*
X0099465Y0136999D01*
X0099565Y0136845D01*
X0099662Y0136689D01*
X0099754Y0136530D01*
X0099842Y0136370D01*
X0099927Y0136207D01*
X0100007Y0136042D01*
X0100084Y0135875D01*
X0100156Y0135707D01*
X0100224Y0135536D01*
X0100288Y0135364D01*
X0100348Y0135191D01*
X0100403Y0135016D01*
X0100454Y0134840D01*
X0100501Y0134662D01*
X0100543Y0134484D01*
X0100581Y0134304D01*
X0100615Y0134124D01*
X0100644Y0133943D01*
X0100669Y0133761D01*
X0100689Y0133579D01*
X0100705Y0133396D01*
X0100716Y0133213D01*
X0100723Y0133029D01*
X0100725Y0132846D01*
X0100723Y0132663D01*
X0100716Y0132479D01*
X0100705Y0132296D01*
X0100689Y0132113D01*
X0100669Y0131931D01*
X0100644Y0131749D01*
X0100615Y0131568D01*
X0100581Y0131388D01*
X0100543Y0131208D01*
X0100501Y0131030D01*
X0100454Y0130852D01*
X0100403Y0130676D01*
X0100348Y0130501D01*
X0100288Y0130328D01*
X0100224Y0130156D01*
X0100156Y0129985D01*
X0100084Y0129817D01*
X0100007Y0129650D01*
X0099927Y0129485D01*
X0099842Y0129322D01*
X0099754Y0129162D01*
X0099662Y0129003D01*
X0099565Y0128847D01*
X0099465Y0128693D01*
X0099361Y0128542D01*
X0099254Y0128393D01*
X0099143Y0128247D01*
X0099028Y0128104D01*
X0098910Y0127964D01*
X0098789Y0127826D01*
X0098664Y0127692D01*
X0098536Y0127560D01*
X0098404Y0127432D01*
X0098270Y0127307D01*
X0098132Y0127186D01*
X0097992Y0127068D01*
X0097849Y0126953D01*
X0097703Y0126842D01*
X0097554Y0126735D01*
X0097403Y0126631D01*
X0097249Y0126531D01*
X0097093Y0126434D01*
X0096934Y0126342D01*
X0096774Y0126254D01*
X0096611Y0126169D01*
X0096446Y0126089D01*
X0096279Y0126012D01*
X0096111Y0125940D01*
X0095940Y0125872D01*
X0095768Y0125808D01*
X0095595Y0125748D01*
X0095420Y0125693D01*
X0095244Y0125642D01*
X0095066Y0125595D01*
X0094888Y0125553D01*
X0094708Y0125515D01*
X0094528Y0125481D01*
X0094347Y0125452D01*
X0094165Y0125427D01*
X0093983Y0125407D01*
X0093800Y0125391D01*
X0093617Y0125380D01*
X0093433Y0125373D01*
X0093250Y0125371D01*
X0093067Y0125373D01*
X0092883Y0125380D01*
X0092700Y0125391D01*
X0092517Y0125407D01*
X0092335Y0125427D01*
X0092153Y0125452D01*
X0091972Y0125481D01*
X0091792Y0125515D01*
X0091612Y0125553D01*
X0091434Y0125595D01*
X0091256Y0125642D01*
X0091080Y0125693D01*
X0090905Y0125748D01*
X0090732Y0125808D01*
X0090560Y0125872D01*
X0090389Y0125940D01*
X0090221Y0126012D01*
X0090054Y0126089D01*
X0089889Y0126169D01*
X0089726Y0126254D01*
X0089566Y0126342D01*
X0089407Y0126434D01*
X0089251Y0126531D01*
X0089097Y0126631D01*
X0088946Y0126735D01*
X0088797Y0126842D01*
X0088651Y0126953D01*
X0088508Y0127068D01*
X0088368Y0127186D01*
X0088230Y0127307D01*
X0088096Y0127432D01*
X0087964Y0127560D01*
X0087836Y0127692D01*
X0087711Y0127826D01*
X0087590Y0127964D01*
X0087472Y0128104D01*
X0087357Y0128247D01*
X0087246Y0128393D01*
X0087139Y0128542D01*
X0087035Y0128693D01*
X0086935Y0128847D01*
X0086838Y0129003D01*
X0086746Y0129162D01*
X0086658Y0129322D01*
X0086573Y0129485D01*
X0086493Y0129650D01*
X0086416Y0129817D01*
X0086344Y0129985D01*
X0086276Y0130156D01*
X0086212Y0130328D01*
X0086152Y0130501D01*
X0086097Y0130676D01*
X0086046Y0130852D01*
X0085999Y0131030D01*
X0085957Y0131208D01*
X0085919Y0131388D01*
X0085885Y0131568D01*
X0085856Y0131749D01*
X0085831Y0131931D01*
X0085811Y0132113D01*
X0085795Y0132296D01*
X0085784Y0132479D01*
X0085777Y0132663D01*
X0085775Y0132846D01*
X0285775Y0127846D02*
X0285777Y0128029D01*
X0285784Y0128213D01*
X0285795Y0128396D01*
X0285811Y0128579D01*
X0285831Y0128761D01*
X0285856Y0128943D01*
X0285885Y0129124D01*
X0285919Y0129304D01*
X0285957Y0129484D01*
X0285999Y0129662D01*
X0286046Y0129840D01*
X0286097Y0130016D01*
X0286152Y0130191D01*
X0286212Y0130364D01*
X0286276Y0130536D01*
X0286344Y0130707D01*
X0286416Y0130875D01*
X0286493Y0131042D01*
X0286573Y0131207D01*
X0286658Y0131370D01*
X0286746Y0131530D01*
X0286838Y0131689D01*
X0286935Y0131845D01*
X0287035Y0131999D01*
X0287139Y0132150D01*
X0287246Y0132299D01*
X0287357Y0132445D01*
X0287472Y0132588D01*
X0287590Y0132728D01*
X0287711Y0132866D01*
X0287836Y0133000D01*
X0287964Y0133132D01*
X0288096Y0133260D01*
X0288230Y0133385D01*
X0288368Y0133506D01*
X0288508Y0133624D01*
X0288651Y0133739D01*
X0288797Y0133850D01*
X0288946Y0133957D01*
X0289097Y0134061D01*
X0289251Y0134161D01*
X0289407Y0134258D01*
X0289566Y0134350D01*
X0289726Y0134438D01*
X0289889Y0134523D01*
X0290054Y0134603D01*
X0290221Y0134680D01*
X0290389Y0134752D01*
X0290560Y0134820D01*
X0290732Y0134884D01*
X0290905Y0134944D01*
X0291080Y0134999D01*
X0291256Y0135050D01*
X0291434Y0135097D01*
X0291612Y0135139D01*
X0291792Y0135177D01*
X0291972Y0135211D01*
X0292153Y0135240D01*
X0292335Y0135265D01*
X0292517Y0135285D01*
X0292700Y0135301D01*
X0292883Y0135312D01*
X0293067Y0135319D01*
X0293250Y0135321D01*
X0293433Y0135319D01*
X0293617Y0135312D01*
X0293800Y0135301D01*
X0293983Y0135285D01*
X0294165Y0135265D01*
X0294347Y0135240D01*
X0294528Y0135211D01*
X0294708Y0135177D01*
X0294888Y0135139D01*
X0295066Y0135097D01*
X0295244Y0135050D01*
X0295420Y0134999D01*
X0295595Y0134944D01*
X0295768Y0134884D01*
X0295940Y0134820D01*
X0296111Y0134752D01*
X0296279Y0134680D01*
X0296446Y0134603D01*
X0296611Y0134523D01*
X0296774Y0134438D01*
X0296934Y0134350D01*
X0297093Y0134258D01*
X0297249Y0134161D01*
X0297403Y0134061D01*
X0297554Y0133957D01*
X0297703Y0133850D01*
X0297849Y0133739D01*
X0297992Y0133624D01*
X0298132Y0133506D01*
X0298270Y0133385D01*
X0298404Y0133260D01*
X0298536Y0133132D01*
X0298664Y0133000D01*
X0298789Y0132866D01*
X0298910Y0132728D01*
X0299028Y0132588D01*
X0299143Y0132445D01*
X0299254Y0132299D01*
X0299361Y0132150D01*
X0299465Y0131999D01*
X0299565Y0131845D01*
X0299662Y0131689D01*
X0299754Y0131530D01*
X0299842Y0131370D01*
X0299927Y0131207D01*
X0300007Y0131042D01*
X0300084Y0130875D01*
X0300156Y0130707D01*
X0300224Y0130536D01*
X0300288Y0130364D01*
X0300348Y0130191D01*
X0300403Y0130016D01*
X0300454Y0129840D01*
X0300501Y0129662D01*
X0300543Y0129484D01*
X0300581Y0129304D01*
X0300615Y0129124D01*
X0300644Y0128943D01*
X0300669Y0128761D01*
X0300689Y0128579D01*
X0300705Y0128396D01*
X0300716Y0128213D01*
X0300723Y0128029D01*
X0300725Y0127846D01*
X0300723Y0127663D01*
X0300716Y0127479D01*
X0300705Y0127296D01*
X0300689Y0127113D01*
X0300669Y0126931D01*
X0300644Y0126749D01*
X0300615Y0126568D01*
X0300581Y0126388D01*
X0300543Y0126208D01*
X0300501Y0126030D01*
X0300454Y0125852D01*
X0300403Y0125676D01*
X0300348Y0125501D01*
X0300288Y0125328D01*
X0300224Y0125156D01*
X0300156Y0124985D01*
X0300084Y0124817D01*
X0300007Y0124650D01*
X0299927Y0124485D01*
X0299842Y0124322D01*
X0299754Y0124162D01*
X0299662Y0124003D01*
X0299565Y0123847D01*
X0299465Y0123693D01*
X0299361Y0123542D01*
X0299254Y0123393D01*
X0299143Y0123247D01*
X0299028Y0123104D01*
X0298910Y0122964D01*
X0298789Y0122826D01*
X0298664Y0122692D01*
X0298536Y0122560D01*
X0298404Y0122432D01*
X0298270Y0122307D01*
X0298132Y0122186D01*
X0297992Y0122068D01*
X0297849Y0121953D01*
X0297703Y0121842D01*
X0297554Y0121735D01*
X0297403Y0121631D01*
X0297249Y0121531D01*
X0297093Y0121434D01*
X0296934Y0121342D01*
X0296774Y0121254D01*
X0296611Y0121169D01*
X0296446Y0121089D01*
X0296279Y0121012D01*
X0296111Y0120940D01*
X0295940Y0120872D01*
X0295768Y0120808D01*
X0295595Y0120748D01*
X0295420Y0120693D01*
X0295244Y0120642D01*
X0295066Y0120595D01*
X0294888Y0120553D01*
X0294708Y0120515D01*
X0294528Y0120481D01*
X0294347Y0120452D01*
X0294165Y0120427D01*
X0293983Y0120407D01*
X0293800Y0120391D01*
X0293617Y0120380D01*
X0293433Y0120373D01*
X0293250Y0120371D01*
X0293067Y0120373D01*
X0292883Y0120380D01*
X0292700Y0120391D01*
X0292517Y0120407D01*
X0292335Y0120427D01*
X0292153Y0120452D01*
X0291972Y0120481D01*
X0291792Y0120515D01*
X0291612Y0120553D01*
X0291434Y0120595D01*
X0291256Y0120642D01*
X0291080Y0120693D01*
X0290905Y0120748D01*
X0290732Y0120808D01*
X0290560Y0120872D01*
X0290389Y0120940D01*
X0290221Y0121012D01*
X0290054Y0121089D01*
X0289889Y0121169D01*
X0289726Y0121254D01*
X0289566Y0121342D01*
X0289407Y0121434D01*
X0289251Y0121531D01*
X0289097Y0121631D01*
X0288946Y0121735D01*
X0288797Y0121842D01*
X0288651Y0121953D01*
X0288508Y0122068D01*
X0288368Y0122186D01*
X0288230Y0122307D01*
X0288096Y0122432D01*
X0287964Y0122560D01*
X0287836Y0122692D01*
X0287711Y0122826D01*
X0287590Y0122964D01*
X0287472Y0123104D01*
X0287357Y0123247D01*
X0287246Y0123393D01*
X0287139Y0123542D01*
X0287035Y0123693D01*
X0286935Y0123847D01*
X0286838Y0124003D01*
X0286746Y0124162D01*
X0286658Y0124322D01*
X0286573Y0124485D01*
X0286493Y0124650D01*
X0286416Y0124817D01*
X0286344Y0124985D01*
X0286276Y0125156D01*
X0286212Y0125328D01*
X0286152Y0125501D01*
X0286097Y0125676D01*
X0286046Y0125852D01*
X0285999Y0126030D01*
X0285957Y0126208D01*
X0285919Y0126388D01*
X0285885Y0126568D01*
X0285856Y0126749D01*
X0285831Y0126931D01*
X0285811Y0127113D01*
X0285795Y0127296D01*
X0285784Y0127479D01*
X0285777Y0127663D01*
X0285775Y0127846D01*
X0285775Y0067846D02*
X0285777Y0068029D01*
X0285784Y0068213D01*
X0285795Y0068396D01*
X0285811Y0068579D01*
X0285831Y0068761D01*
X0285856Y0068943D01*
X0285885Y0069124D01*
X0285919Y0069304D01*
X0285957Y0069484D01*
X0285999Y0069662D01*
X0286046Y0069840D01*
X0286097Y0070016D01*
X0286152Y0070191D01*
X0286212Y0070364D01*
X0286276Y0070536D01*
X0286344Y0070707D01*
X0286416Y0070875D01*
X0286493Y0071042D01*
X0286573Y0071207D01*
X0286658Y0071370D01*
X0286746Y0071530D01*
X0286838Y0071689D01*
X0286935Y0071845D01*
X0287035Y0071999D01*
X0287139Y0072150D01*
X0287246Y0072299D01*
X0287357Y0072445D01*
X0287472Y0072588D01*
X0287590Y0072728D01*
X0287711Y0072866D01*
X0287836Y0073000D01*
X0287964Y0073132D01*
X0288096Y0073260D01*
X0288230Y0073385D01*
X0288368Y0073506D01*
X0288508Y0073624D01*
X0288651Y0073739D01*
X0288797Y0073850D01*
X0288946Y0073957D01*
X0289097Y0074061D01*
X0289251Y0074161D01*
X0289407Y0074258D01*
X0289566Y0074350D01*
X0289726Y0074438D01*
X0289889Y0074523D01*
X0290054Y0074603D01*
X0290221Y0074680D01*
X0290389Y0074752D01*
X0290560Y0074820D01*
X0290732Y0074884D01*
X0290905Y0074944D01*
X0291080Y0074999D01*
X0291256Y0075050D01*
X0291434Y0075097D01*
X0291612Y0075139D01*
X0291792Y0075177D01*
X0291972Y0075211D01*
X0292153Y0075240D01*
X0292335Y0075265D01*
X0292517Y0075285D01*
X0292700Y0075301D01*
X0292883Y0075312D01*
X0293067Y0075319D01*
X0293250Y0075321D01*
X0293433Y0075319D01*
X0293617Y0075312D01*
X0293800Y0075301D01*
X0293983Y0075285D01*
X0294165Y0075265D01*
X0294347Y0075240D01*
X0294528Y0075211D01*
X0294708Y0075177D01*
X0294888Y0075139D01*
X0295066Y0075097D01*
X0295244Y0075050D01*
X0295420Y0074999D01*
X0295595Y0074944D01*
X0295768Y0074884D01*
X0295940Y0074820D01*
X0296111Y0074752D01*
X0296279Y0074680D01*
X0296446Y0074603D01*
X0296611Y0074523D01*
X0296774Y0074438D01*
X0296934Y0074350D01*
X0297093Y0074258D01*
X0297249Y0074161D01*
X0297403Y0074061D01*
X0297554Y0073957D01*
X0297703Y0073850D01*
X0297849Y0073739D01*
X0297992Y0073624D01*
X0298132Y0073506D01*
X0298270Y0073385D01*
X0298404Y0073260D01*
X0298536Y0073132D01*
X0298664Y0073000D01*
X0298789Y0072866D01*
X0298910Y0072728D01*
X0299028Y0072588D01*
X0299143Y0072445D01*
X0299254Y0072299D01*
X0299361Y0072150D01*
X0299465Y0071999D01*
X0299565Y0071845D01*
X0299662Y0071689D01*
X0299754Y0071530D01*
X0299842Y0071370D01*
X0299927Y0071207D01*
X0300007Y0071042D01*
X0300084Y0070875D01*
X0300156Y0070707D01*
X0300224Y0070536D01*
X0300288Y0070364D01*
X0300348Y0070191D01*
X0300403Y0070016D01*
X0300454Y0069840D01*
X0300501Y0069662D01*
X0300543Y0069484D01*
X0300581Y0069304D01*
X0300615Y0069124D01*
X0300644Y0068943D01*
X0300669Y0068761D01*
X0300689Y0068579D01*
X0300705Y0068396D01*
X0300716Y0068213D01*
X0300723Y0068029D01*
X0300725Y0067846D01*
X0300723Y0067663D01*
X0300716Y0067479D01*
X0300705Y0067296D01*
X0300689Y0067113D01*
X0300669Y0066931D01*
X0300644Y0066749D01*
X0300615Y0066568D01*
X0300581Y0066388D01*
X0300543Y0066208D01*
X0300501Y0066030D01*
X0300454Y0065852D01*
X0300403Y0065676D01*
X0300348Y0065501D01*
X0300288Y0065328D01*
X0300224Y0065156D01*
X0300156Y0064985D01*
X0300084Y0064817D01*
X0300007Y0064650D01*
X0299927Y0064485D01*
X0299842Y0064322D01*
X0299754Y0064162D01*
X0299662Y0064003D01*
X0299565Y0063847D01*
X0299465Y0063693D01*
X0299361Y0063542D01*
X0299254Y0063393D01*
X0299143Y0063247D01*
X0299028Y0063104D01*
X0298910Y0062964D01*
X0298789Y0062826D01*
X0298664Y0062692D01*
X0298536Y0062560D01*
X0298404Y0062432D01*
X0298270Y0062307D01*
X0298132Y0062186D01*
X0297992Y0062068D01*
X0297849Y0061953D01*
X0297703Y0061842D01*
X0297554Y0061735D01*
X0297403Y0061631D01*
X0297249Y0061531D01*
X0297093Y0061434D01*
X0296934Y0061342D01*
X0296774Y0061254D01*
X0296611Y0061169D01*
X0296446Y0061089D01*
X0296279Y0061012D01*
X0296111Y0060940D01*
X0295940Y0060872D01*
X0295768Y0060808D01*
X0295595Y0060748D01*
X0295420Y0060693D01*
X0295244Y0060642D01*
X0295066Y0060595D01*
X0294888Y0060553D01*
X0294708Y0060515D01*
X0294528Y0060481D01*
X0294347Y0060452D01*
X0294165Y0060427D01*
X0293983Y0060407D01*
X0293800Y0060391D01*
X0293617Y0060380D01*
X0293433Y0060373D01*
X0293250Y0060371D01*
X0293067Y0060373D01*
X0292883Y0060380D01*
X0292700Y0060391D01*
X0292517Y0060407D01*
X0292335Y0060427D01*
X0292153Y0060452D01*
X0291972Y0060481D01*
X0291792Y0060515D01*
X0291612Y0060553D01*
X0291434Y0060595D01*
X0291256Y0060642D01*
X0291080Y0060693D01*
X0290905Y0060748D01*
X0290732Y0060808D01*
X0290560Y0060872D01*
X0290389Y0060940D01*
X0290221Y0061012D01*
X0290054Y0061089D01*
X0289889Y0061169D01*
X0289726Y0061254D01*
X0289566Y0061342D01*
X0289407Y0061434D01*
X0289251Y0061531D01*
X0289097Y0061631D01*
X0288946Y0061735D01*
X0288797Y0061842D01*
X0288651Y0061953D01*
X0288508Y0062068D01*
X0288368Y0062186D01*
X0288230Y0062307D01*
X0288096Y0062432D01*
X0287964Y0062560D01*
X0287836Y0062692D01*
X0287711Y0062826D01*
X0287590Y0062964D01*
X0287472Y0063104D01*
X0287357Y0063247D01*
X0287246Y0063393D01*
X0287139Y0063542D01*
X0287035Y0063693D01*
X0286935Y0063847D01*
X0286838Y0064003D01*
X0286746Y0064162D01*
X0286658Y0064322D01*
X0286573Y0064485D01*
X0286493Y0064650D01*
X0286416Y0064817D01*
X0286344Y0064985D01*
X0286276Y0065156D01*
X0286212Y0065328D01*
X0286152Y0065501D01*
X0286097Y0065676D01*
X0286046Y0065852D01*
X0285999Y0066030D01*
X0285957Y0066208D01*
X0285919Y0066388D01*
X0285885Y0066568D01*
X0285856Y0066749D01*
X0285831Y0066931D01*
X0285811Y0067113D01*
X0285795Y0067296D01*
X0285784Y0067479D01*
X0285777Y0067663D01*
X0285775Y0067846D01*
D11*
X0013250Y0007846D02*
X0013250Y0186846D01*
X0308250Y0186846D01*
X0308250Y0007846D01*
X0013250Y0007846D01*
X0066250Y0080846D02*
X0100250Y0080846D01*
X0100250Y0114846D01*
X0066250Y0114846D01*
X0066250Y0080846D01*
X0153250Y0097846D02*
X0153268Y0099318D01*
X0153322Y0100790D01*
X0153413Y0102260D01*
X0153539Y0103727D01*
X0153701Y0105191D01*
X0153899Y0106650D01*
X0154133Y0108104D01*
X0154403Y0109551D01*
X0154708Y0110992D01*
X0155048Y0112425D01*
X0155423Y0113849D01*
X0155834Y0115263D01*
X0156278Y0116667D01*
X0156757Y0118059D01*
X0157270Y0119440D01*
X0157817Y0120807D01*
X0158397Y0122160D01*
X0159011Y0123499D01*
X0159657Y0124823D01*
X0160335Y0126130D01*
X0161045Y0127420D01*
X0161786Y0128692D01*
X0162559Y0129946D01*
X0163362Y0131180D01*
X0164195Y0132394D01*
X0165058Y0133588D01*
X0165949Y0134760D01*
X0166869Y0135910D01*
X0167817Y0137036D01*
X0168793Y0138140D01*
X0169795Y0139218D01*
X0170824Y0140272D01*
X0171878Y0141301D01*
X0172956Y0142303D01*
X0174060Y0143279D01*
X0175186Y0144227D01*
X0176336Y0145147D01*
X0177508Y0146038D01*
X0178702Y0146901D01*
X0179916Y0147734D01*
X0181150Y0148537D01*
X0182404Y0149310D01*
X0183676Y0150051D01*
X0184966Y0150761D01*
X0186273Y0151439D01*
X0187597Y0152085D01*
X0188936Y0152699D01*
X0190289Y0153279D01*
X0191656Y0153826D01*
X0193037Y0154339D01*
X0194429Y0154818D01*
X0195833Y0155262D01*
X0197247Y0155673D01*
X0198671Y0156048D01*
X0200104Y0156388D01*
X0201545Y0156693D01*
X0202992Y0156963D01*
X0204446Y0157197D01*
X0205905Y0157395D01*
X0207369Y0157557D01*
X0208836Y0157683D01*
X0210306Y0157774D01*
X0211778Y0157828D01*
X0213250Y0157846D01*
X0214722Y0157828D01*
X0216194Y0157774D01*
X0217664Y0157683D01*
X0219131Y0157557D01*
X0220595Y0157395D01*
X0222054Y0157197D01*
X0223508Y0156963D01*
X0224955Y0156693D01*
X0226396Y0156388D01*
X0227829Y0156048D01*
X0229253Y0155673D01*
X0230667Y0155262D01*
X0232071Y0154818D01*
X0233463Y0154339D01*
X0234844Y0153826D01*
X0236211Y0153279D01*
X0237564Y0152699D01*
X0238903Y0152085D01*
X0240227Y0151439D01*
X0241534Y0150761D01*
X0242824Y0150051D01*
X0244096Y0149310D01*
X0245350Y0148537D01*
X0246584Y0147734D01*
X0247798Y0146901D01*
X0248992Y0146038D01*
X0250164Y0145147D01*
X0251314Y0144227D01*
X0252440Y0143279D01*
X0253544Y0142303D01*
X0254622Y0141301D01*
X0255676Y0140272D01*
X0256705Y0139218D01*
X0257707Y0138140D01*
X0258683Y0137036D01*
X0259631Y0135910D01*
X0260551Y0134760D01*
X0261442Y0133588D01*
X0262305Y0132394D01*
X0263138Y0131180D01*
X0263941Y0129946D01*
X0264714Y0128692D01*
X0265455Y0127420D01*
X0266165Y0126130D01*
X0266843Y0124823D01*
X0267489Y0123499D01*
X0268103Y0122160D01*
X0268683Y0120807D01*
X0269230Y0119440D01*
X0269743Y0118059D01*
X0270222Y0116667D01*
X0270666Y0115263D01*
X0271077Y0113849D01*
X0271452Y0112425D01*
X0271792Y0110992D01*
X0272097Y0109551D01*
X0272367Y0108104D01*
X0272601Y0106650D01*
X0272799Y0105191D01*
X0272961Y0103727D01*
X0273087Y0102260D01*
X0273178Y0100790D01*
X0273232Y0099318D01*
X0273250Y0097846D01*
X0273232Y0096374D01*
X0273178Y0094902D01*
X0273087Y0093432D01*
X0272961Y0091965D01*
X0272799Y0090501D01*
X0272601Y0089042D01*
X0272367Y0087588D01*
X0272097Y0086141D01*
X0271792Y0084700D01*
X0271452Y0083267D01*
X0271077Y0081843D01*
X0270666Y0080429D01*
X0270222Y0079025D01*
X0269743Y0077633D01*
X0269230Y0076252D01*
X0268683Y0074885D01*
X0268103Y0073532D01*
X0267489Y0072193D01*
X0266843Y0070869D01*
X0266165Y0069562D01*
X0265455Y0068272D01*
X0264714Y0067000D01*
X0263941Y0065746D01*
X0263138Y0064512D01*
X0262305Y0063298D01*
X0261442Y0062104D01*
X0260551Y0060932D01*
X0259631Y0059782D01*
X0258683Y0058656D01*
X0257707Y0057552D01*
X0256705Y0056474D01*
X0255676Y0055420D01*
X0254622Y0054391D01*
X0253544Y0053389D01*
X0252440Y0052413D01*
X0251314Y0051465D01*
X0250164Y0050545D01*
X0248992Y0049654D01*
X0247798Y0048791D01*
X0246584Y0047958D01*
X0245350Y0047155D01*
X0244096Y0046382D01*
X0242824Y0045641D01*
X0241534Y0044931D01*
X0240227Y0044253D01*
X0238903Y0043607D01*
X0237564Y0042993D01*
X0236211Y0042413D01*
X0234844Y0041866D01*
X0233463Y0041353D01*
X0232071Y0040874D01*
X0230667Y0040430D01*
X0229253Y0040019D01*
X0227829Y0039644D01*
X0226396Y0039304D01*
X0224955Y0038999D01*
X0223508Y0038729D01*
X0222054Y0038495D01*
X0220595Y0038297D01*
X0219131Y0038135D01*
X0217664Y0038009D01*
X0216194Y0037918D01*
X0214722Y0037864D01*
X0213250Y0037846D01*
X0211778Y0037864D01*
X0210306Y0037918D01*
X0208836Y0038009D01*
X0207369Y0038135D01*
X0205905Y0038297D01*
X0204446Y0038495D01*
X0202992Y0038729D01*
X0201545Y0038999D01*
X0200104Y0039304D01*
X0198671Y0039644D01*
X0197247Y0040019D01*
X0195833Y0040430D01*
X0194429Y0040874D01*
X0193037Y0041353D01*
X0191656Y0041866D01*
X0190289Y0042413D01*
X0188936Y0042993D01*
X0187597Y0043607D01*
X0186273Y0044253D01*
X0184966Y0044931D01*
X0183676Y0045641D01*
X0182404Y0046382D01*
X0181150Y0047155D01*
X0179916Y0047958D01*
X0178702Y0048791D01*
X0177508Y0049654D01*
X0176336Y0050545D01*
X0175186Y0051465D01*
X0174060Y0052413D01*
X0172956Y0053389D01*
X0171878Y0054391D01*
X0170824Y0055420D01*
X0169795Y0056474D01*
X0168793Y0057552D01*
X0167817Y0058656D01*
X0166869Y0059782D01*
X0165949Y0060932D01*
X0165058Y0062104D01*
X0164195Y0063298D01*
X0163362Y0064512D01*
X0162559Y0065746D01*
X0161786Y0067000D01*
X0161045Y0068272D01*
X0160335Y0069562D01*
X0159657Y0070869D01*
X0159011Y0072193D01*
X0158397Y0073532D01*
X0157817Y0074885D01*
X0157270Y0076252D01*
X0156757Y0077633D01*
X0156278Y0079025D01*
X0155834Y0080429D01*
X0155423Y0081843D01*
X0155048Y0083267D01*
X0154708Y0084700D01*
X0154403Y0086141D01*
X0154133Y0087588D01*
X0153899Y0089042D01*
X0153701Y0090501D01*
X0153539Y0091965D01*
X0153413Y0093432D01*
X0153322Y0094902D01*
X0153268Y0096374D01*
X0153250Y0097846D01*
D12*
X0036793Y0103791D02*
X0029707Y0103791D01*
X0029707Y0181901D02*
X0036793Y0181901D01*
D13*
X0016300Y0170541D02*
X0014365Y0170541D01*
X0014365Y0171508D02*
X0014365Y0171992D01*
X0014365Y0171508D02*
X0015333Y0170541D01*
X0015333Y0169529D02*
X0015333Y0167594D01*
X0015816Y0167594D02*
X0014849Y0167594D01*
X0014365Y0168078D01*
X0014365Y0169045D01*
X0014849Y0169529D01*
X0015333Y0169529D01*
X0016300Y0169045D02*
X0016300Y0168078D01*
X0015816Y0167594D01*
X0015816Y0166583D02*
X0016300Y0166099D01*
X0016300Y0164648D01*
X0017267Y0164648D02*
X0014365Y0164648D01*
X0014365Y0166099D01*
X0014849Y0166583D01*
X0015816Y0166583D01*
X0015816Y0163636D02*
X0014849Y0163636D01*
X0014365Y0163152D01*
X0014365Y0161701D01*
X0017267Y0161701D01*
X0016300Y0161701D02*
X0016300Y0163152D01*
X0015816Y0163636D01*
X0015816Y0160689D02*
X0014849Y0160689D01*
X0014365Y0160206D01*
X0014365Y0159238D01*
X0014849Y0158754D01*
X0015816Y0158754D01*
X0016300Y0159238D01*
X0016300Y0160206D01*
X0015816Y0160689D01*
X0016300Y0157743D02*
X0016300Y0156292D01*
X0015816Y0155808D01*
X0014849Y0155808D01*
X0014365Y0156292D01*
X0014365Y0157743D01*
X0014849Y0151850D02*
X0016300Y0151850D01*
X0014849Y0151850D02*
X0014365Y0151366D01*
X0014365Y0150399D01*
X0014849Y0149915D01*
X0014365Y0148918D02*
X0014365Y0147951D01*
X0013881Y0148434D02*
X0015816Y0148434D01*
X0016300Y0148918D01*
X0016300Y0149915D02*
X0013398Y0149915D01*
X0013398Y0146470D02*
X0012914Y0146470D01*
X0014365Y0146470D02*
X0016300Y0146470D01*
X0016300Y0145986D02*
X0016300Y0146954D01*
X0014365Y0146470D02*
X0014365Y0145986D01*
X0014365Y0144975D02*
X0015816Y0144975D01*
X0016300Y0144491D01*
X0015816Y0144007D01*
X0016300Y0143523D01*
X0015816Y0143040D01*
X0014365Y0143040D01*
X0014365Y0139082D02*
X0014365Y0137630D01*
X0014849Y0137147D01*
X0015333Y0137630D01*
X0015333Y0138598D01*
X0015816Y0139082D01*
X0016300Y0138598D01*
X0016300Y0137147D01*
X0016300Y0136150D02*
X0016300Y0135182D01*
X0016300Y0135666D02*
X0013398Y0135666D01*
X0013398Y0135182D01*
X0013398Y0133702D02*
X0016300Y0133702D01*
X0016300Y0134185D02*
X0016300Y0133218D01*
X0016300Y0132221D02*
X0016300Y0131254D01*
X0016300Y0131737D02*
X0014365Y0131737D01*
X0014365Y0131254D01*
X0014365Y0130249D02*
X0014365Y0129766D01*
X0015333Y0128798D01*
X0016300Y0128798D02*
X0014365Y0128798D01*
X0013881Y0127787D02*
X0013398Y0127303D01*
X0013398Y0125852D01*
X0016300Y0125852D01*
X0016300Y0127303D01*
X0015816Y0127787D01*
X0013881Y0127787D01*
X0013398Y0131737D02*
X0012914Y0131737D01*
X0013398Y0133218D02*
X0013398Y0133702D01*
X0014365Y0121908D02*
X0014365Y0120941D01*
X0013881Y0121425D02*
X0015816Y0121425D01*
X0016300Y0121908D01*
X0015816Y0119929D02*
X0014849Y0119929D01*
X0014365Y0119446D01*
X0014365Y0118478D01*
X0014849Y0117994D01*
X0015816Y0117994D01*
X0016300Y0118478D01*
X0016300Y0119446D01*
X0015816Y0119929D01*
X0016300Y0116997D02*
X0016300Y0116030D01*
X0016300Y0116514D02*
X0013398Y0116514D01*
X0013398Y0116030D01*
X0013881Y0115018D02*
X0013398Y0114535D01*
X0013398Y0113567D01*
X0013881Y0113083D01*
X0014365Y0113083D01*
X0014849Y0113567D01*
X0014849Y0114535D01*
X0015333Y0115018D01*
X0015816Y0115018D01*
X0016300Y0114535D01*
X0016300Y0113567D01*
X0015816Y0113083D01*
D14*
X0001242Y0110051D02*
X0041819Y0110051D01*
X0041823Y0109927D01*
X0041831Y0109802D01*
X0041842Y0109678D01*
X0041858Y0109555D01*
X0041878Y0109432D01*
X0041901Y0109310D01*
X0041928Y0109188D01*
X0041959Y0109067D01*
X0041994Y0108948D01*
X0042033Y0108830D01*
X0042075Y0108712D01*
X0042121Y0108597D01*
X0042171Y0108482D01*
X0042224Y0108370D01*
X0042280Y0108259D01*
X0042341Y0108150D01*
X0042404Y0108043D01*
X0042471Y0107938D01*
X0042541Y0107835D01*
X0042614Y0107734D01*
X0042691Y0107636D01*
X0042770Y0107540D01*
X0042853Y0107446D01*
X0042938Y0107356D01*
X0043026Y0107268D01*
X0043117Y0107183D01*
X0043210Y0107100D01*
X0043306Y0107021D01*
X0043405Y0106945D01*
X0043506Y0106872D01*
X0043609Y0106802D01*
X0043714Y0106735D01*
X0043821Y0106672D01*
X0043930Y0106612D01*
X0044041Y0106556D01*
X0044154Y0106503D01*
X0044268Y0106453D01*
X0044384Y0106408D01*
X0044501Y0106366D01*
X0044620Y0106327D01*
X0044740Y0106293D01*
X0044860Y0106262D01*
X0044982Y0106235D01*
X0045104Y0106211D01*
X0045227Y0106192D01*
X0045351Y0106177D01*
X0045475Y0106165D01*
X0045599Y0106157D01*
X0045723Y0106153D01*
X0045848Y0106154D01*
X0045848Y0106153D02*
X0045851Y0106153D01*
X0045975Y0106155D01*
X0046098Y0106161D01*
X0046221Y0106170D01*
X0046344Y0106184D01*
X0046466Y0106201D01*
X0046588Y0106223D01*
X0046709Y0106248D01*
X0046829Y0106277D01*
X0046949Y0106309D01*
X0047067Y0106346D01*
X0047184Y0106386D01*
X0047299Y0106429D01*
X0047413Y0106477D01*
X0047526Y0106527D01*
X0047637Y0106582D01*
X0047746Y0106640D01*
X0047854Y0106701D01*
X0047959Y0106765D01*
X0048062Y0106833D01*
X0048163Y0106904D01*
X0048262Y0106979D01*
X0048359Y0107056D01*
X0048453Y0107136D01*
X0048544Y0107219D01*
X0048633Y0107305D01*
X0048719Y0107394D01*
X0048802Y0107485D01*
X0048882Y0107579D01*
X0048959Y0107676D01*
X0049034Y0107775D01*
X0049105Y0107876D01*
X0049173Y0107979D01*
X0049237Y0108084D01*
X0049298Y0108192D01*
X0049356Y0108301D01*
X0049411Y0108412D01*
X0049461Y0108525D01*
X0049509Y0108639D01*
X0049552Y0108754D01*
X0049592Y0108871D01*
X0049629Y0108989D01*
X0049661Y0109109D01*
X0049690Y0109229D01*
X0049715Y0109350D01*
X0049737Y0109472D01*
X0049754Y0109594D01*
X0049768Y0109717D01*
X0049777Y0109840D01*
X0049783Y0109963D01*
X0049785Y0110087D01*
X0049785Y0175611D01*
X0049786Y0175611D02*
X0049784Y0175734D01*
X0049778Y0175858D01*
X0049769Y0175981D01*
X0049755Y0176103D01*
X0049738Y0176225D01*
X0049716Y0176347D01*
X0049691Y0176468D01*
X0049663Y0176588D01*
X0049630Y0176707D01*
X0049594Y0176825D01*
X0049554Y0176942D01*
X0049510Y0177057D01*
X0049463Y0177171D01*
X0049412Y0177283D01*
X0049358Y0177394D01*
X0049300Y0177503D01*
X0049239Y0177611D01*
X0049175Y0177716D01*
X0049107Y0177819D01*
X0049036Y0177920D01*
X0048962Y0178018D01*
X0048885Y0178115D01*
X0048804Y0178209D01*
X0048721Y0178300D01*
X0048636Y0178389D01*
X0048547Y0178474D01*
X0048456Y0178557D01*
X0048362Y0178638D01*
X0048265Y0178715D01*
X0048167Y0178789D01*
X0048066Y0178860D01*
X0047963Y0178928D01*
X0047858Y0178992D01*
X0047750Y0179053D01*
X0047641Y0179111D01*
X0047530Y0179165D01*
X0047418Y0179216D01*
X0047304Y0179263D01*
X0047189Y0179307D01*
X0047072Y0179347D01*
X0046954Y0179383D01*
X0046835Y0179416D01*
X0046715Y0179444D01*
X0046594Y0179469D01*
X0046472Y0179491D01*
X0046350Y0179508D01*
X0046228Y0179522D01*
X0046105Y0179531D01*
X0045981Y0179537D01*
X0045858Y0179539D01*
X0045848Y0179539D01*
X0045849Y0179539D02*
X0045726Y0179538D01*
X0045603Y0179532D01*
X0045480Y0179523D01*
X0045358Y0179511D01*
X0045236Y0179494D01*
X0045114Y0179473D01*
X0044994Y0179449D01*
X0044874Y0179421D01*
X0044755Y0179389D01*
X0044637Y0179353D01*
X0044521Y0179314D01*
X0044405Y0179271D01*
X0044291Y0179225D01*
X0044179Y0179175D01*
X0044068Y0179121D01*
X0043959Y0179064D01*
X0043852Y0179004D01*
X0043747Y0178940D01*
X0043644Y0178873D01*
X0043543Y0178802D01*
X0043444Y0178729D01*
X0043347Y0178653D01*
X0043253Y0178573D01*
X0043162Y0178491D01*
X0043073Y0178406D01*
X0042987Y0178318D01*
X0042904Y0178227D01*
X0042823Y0178134D01*
X0042746Y0178038D01*
X0042672Y0177940D01*
X0042600Y0177840D01*
X0042532Y0177737D01*
X0042468Y0177633D01*
X0042406Y0177526D01*
X0042348Y0177418D01*
X0042293Y0177308D01*
X0042242Y0177196D01*
X0042194Y0177082D01*
X0042150Y0176967D01*
X0042110Y0176851D01*
X0042073Y0176734D01*
X0042040Y0176615D01*
X0042011Y0176496D01*
X0041985Y0176375D01*
X0041963Y0176254D01*
X0041945Y0176132D01*
X0041931Y0176010D01*
X0041921Y0175888D01*
X0041915Y0175765D01*
X0041912Y0175642D01*
X0041911Y0175641D02*
X0001242Y0175641D01*
D15*
X0018250Y0181846D02*
X0018250Y0103846D01*
X0025750Y0103846D01*
X0024750Y0102846D01*
X0025750Y0103846D02*
X0024750Y0104846D01*
X0045750Y0155346D02*
X0048250Y0157846D01*
X0045750Y0160346D01*
X0048250Y0157846D02*
X0038250Y0157846D01*
X0024750Y0180846D02*
X0025750Y0181846D01*
X0024750Y0182846D01*
X0025750Y0181846D02*
X0018250Y0181846D01*
D16*
X0040748Y0151511D02*
X0041515Y0151511D01*
X0041515Y0148442D01*
X0040748Y0148442D02*
X0039981Y0149209D01*
X0039981Y0150744D01*
X0040748Y0151511D01*
X0043050Y0150744D02*
X0043050Y0149209D01*
X0042283Y0148442D01*
X0040748Y0148442D01*
X0039981Y0146907D02*
X0039981Y0144605D01*
X0040748Y0143838D01*
X0042283Y0143838D01*
X0043050Y0144605D01*
X0043050Y0146907D01*
X0043817Y0146907D02*
X0039981Y0146907D01*
X0043817Y0146907D02*
X0044585Y0146140D01*
X0044585Y0145373D01*
X0043050Y0142303D02*
X0038446Y0142303D01*
X0039981Y0142303D02*
X0039981Y0140001D01*
X0040748Y0139234D01*
X0042283Y0139234D01*
X0043050Y0140001D01*
X0043050Y0142303D01*
X0041515Y0137700D02*
X0041515Y0134630D01*
X0040748Y0134630D02*
X0039981Y0135398D01*
X0039981Y0136932D01*
X0040748Y0137700D01*
X0041515Y0137700D01*
X0043050Y0136932D02*
X0043050Y0135398D01*
X0042283Y0134630D01*
X0040748Y0134630D01*
X0039981Y0128492D02*
X0040748Y0127724D01*
X0040748Y0125422D01*
X0039213Y0123888D02*
X0038446Y0123120D01*
X0038446Y0121586D01*
X0039213Y0120818D01*
X0042283Y0120818D01*
X0043050Y0121586D01*
X0043050Y0123120D01*
X0042283Y0123888D01*
X0043050Y0125422D02*
X0038446Y0125422D01*
X0038446Y0127724D01*
X0039213Y0128492D01*
X0039981Y0128492D01*
X0040748Y0127724D02*
X0041515Y0128492D01*
X0042283Y0128492D01*
X0043050Y0127724D01*
X0043050Y0125422D01*
X0040748Y0119284D02*
X0039213Y0119284D01*
X0038446Y0118516D01*
X0038446Y0116215D01*
X0043050Y0116215D01*
X0041515Y0116215D02*
X0041515Y0118516D01*
X0040748Y0119284D01*
M02*
