%
M48
M72
T01C0.01300
T02C0.02362
T03C0.03000
T04C0.03150
T05C0.03500
T06C0.14950
%
T01
X77250Y145846
X89250Y149846
X98750Y154346
X118750Y115846
X122750Y121846
X131250Y74346
X142750Y69346
X126250Y62846
X118250Y42846
X101750Y33846
X101750Y28846
X97250Y25346
X105750Y19346
X109250Y24846
X96250Y17346
X85250Y18846
X67250Y28846
X63250Y28846
X59250Y28846
X59250Y32846
X63250Y32846
X67250Y32846
X67250Y36846
X63250Y36846
X59250Y36846
X46250Y41846
X47250Y46846
X33250Y42846
X18250Y42846
X18250Y32846
X18250Y22846
X23250Y12846
X38250Y12846
X49750Y22346
X55250Y11846
X92750Y36346
X86750Y43346
X79750Y38346
X64250Y48346
X63250Y53346
X88250Y70846
X56250Y72846
X33250Y52846
X18250Y52846
X126250Y24346
X129750Y19846
X163750Y28846
X170750Y33346
X176250Y29346
X255750Y21846
X271750Y38346
T02
X33250Y103791
X33250Y181901
T03
X54195Y160838
X58447Y156901
X62778Y152885
X58447Y148870
X62778Y144854
X58447Y140838
X62778Y136822
X58447Y132807
X62778Y128791
X54195Y124854
X54195Y115838
X54195Y169854
T04
X115376Y132846
X123250Y132846
X131124Y132846
X293250Y105720
X293250Y97846
X293250Y89972
T05
X73250Y177846
X83250Y177846
X93250Y177846
X113250Y177846
X123250Y177846
X133250Y177846
X143250Y177846
X153250Y177846
X163250Y177846
X214250Y24846
X224250Y24846
X234250Y24846
X234250Y14846
X224250Y14846
X214250Y14846
X289750Y22346
X299750Y22346
X299750Y32346
X289750Y32346
X289750Y42346
X299750Y42346
T06
X93250Y132846
X293250Y127846
X293250Y67846
M30
